<svg width="72" height="72" viewBox="0 0 72 72" fill="none" xmlns="http://www.w3.org/2000/svg">
<circle cx="36" cy="36" r="36" fill="url(#paint0_linear_300_341)"/>
<mask id="path-2-outside-1_300_341" maskUnits="userSpaceOnUse" x="6.43848" y="19.2578" width="59" height="45" fill="black">
<rect fill="white" x="6.43848" y="19.2578" width="59" height="45"/>
<path d="M50.8571 25.8978C50.0292 25.9057 49.2035 25.9746 48.3869 26.1057C47.5702 26.2368 46.766 26.4369 45.981 26.6911C44.4121 27.2054 42.9177 27.9546 41.5917 28.9356C40.2577 29.9098 39.0796 31.0784 37.9219 32.2583C36.7664 33.4415 35.6132 34.5819 34.356 35.6725C36.894 37.2083 39.7607 38.0933 42.7065 38.4131C45.65 38.742 48.6613 38.4244 51.475 37.5124C54.2897 36.6014 56.9068 35.0859 59.089 33.0935C61.2713 31.1021 63.0695 28.8633 64.1832 26.1294C62.1692 24.2466 59.7713 22.7785 57.1768 21.853C54.5823 20.924 51.7924 20.5623 49.0488 20.7511C47.6753 20.8471 46.3165 21.1059 44.9961 21.4924C43.6779 21.888 42.4016 22.4203 41.1975 23.0859C40.6 23.4239 40.016 23.7855 39.458 24.1901C38.9012 24.5947 38.3579 25.0185 37.836 25.4717C36.789 26.3724 35.804 27.35 34.8293 28.3412C33.8534 29.3312 32.8842 30.3359 31.8654 31.2965C31.356 31.7768 30.8353 32.247 30.2931 32.6934C29.7521 33.1421 29.1941 33.5715 28.6068 33.9625C28.4611 34.062 28.3153 34.1614 28.164 34.2519C28.0138 34.3445 27.8658 34.4406 27.7133 34.5287L27.2513 34.7887C27.0989 34.878 26.9373 34.9503 26.7803 35.0317L26.5431 35.1515C26.4641 35.1899 26.3816 35.2238 26.3014 35.26C26.1388 35.33 25.9795 35.4058 25.8157 35.4724C25.4848 35.599 25.1561 35.7312 24.8172 35.8318C24.4829 35.9482 24.1361 36.0262 23.795 36.1189L23.2743 36.2251L23.0134 36.2771L22.7502 36.3167C22.0499 36.4218 21.3417 36.4704 20.6335 36.4636C19.2182 36.45 17.8074 36.2172 16.4611 35.7843C15.7879 35.5674 15.1316 35.2995 14.4991 34.9842C13.8677 34.6655 13.2589 34.3027 12.6794 33.8993C10.3684 32.2718 8.53637 29.9708 7.49721 27.3387L7.43848 27.1884L7.56837 27.0946C9.51001 25.6898 11.8447 24.8795 14.2156 24.6693C16.5898 24.4591 19.0104 24.8569 21.1983 25.7881C22.2916 26.256 23.3263 26.8561 24.2886 27.5523C25.2487 28.2519 26.1263 29.0588 26.9283 29.9313C28.5243 31.6864 29.7939 33.7184 30.7607 35.8736C31.2476 36.9507 31.6553 38.0627 31.9919 39.1952C32.1647 39.7602 32.3082 40.3332 32.4449 40.9073C32.5714 41.4837 32.69 42.0635 32.7792 42.6466C32.9565 43.813 33.0943 44.9827 33.1971 46.1558C33.2559 46.7412 33.2943 47.3289 33.3417 47.9154C33.379 48.5031 33.4242 49.0896 33.4535 49.6773C33.5857 52.0269 33.6602 54.3788 33.6839 56.7317C33.711 59.0836 33.6851 61.4366 33.5947 63.7873C33.6252 62.6119 33.6376 61.4354 33.6376 60.2601C33.6331 59.0847 33.6229 57.9082 33.597 56.7329C33.5495 54.3822 33.4524 52.0326 33.2976 49.6864C33.2626 49.0998 33.2118 48.5144 33.1689 47.9278C33.1147 47.3424 33.0717 46.757 33.0074 46.1727C32.8933 45.0041 32.7442 43.8378 32.5567 42.6817C32.3624 41.5267 32.0913 40.3852 31.7502 39.2652C31.4102 38.1452 31.0002 37.0467 30.5123 35.9833C29.5443 33.8563 28.2769 31.8571 26.6967 30.1404C25.9027 29.2871 25.0375 28.4994 24.0921 27.8202C23.1455 27.1432 22.1312 26.5634 21.0605 26.1125C18.9178 25.2163 16.5605 24.8445 14.2506 25.0626C11.9464 25.2818 9.75512 25.9096 7.88351 27.2715C8.89668 29.8222 10.6825 31.9701 12.9268 33.5444C13.4904 33.9354 14.0812 34.2858 14.6934 34.5932C15.3067 34.8972 15.9437 35.156 16.5966 35.3651C17.9023 35.7821 19.269 36.0047 20.638 36.0149C21.3225 36.0206 22.007 35.972 22.6824 35.8691L22.9355 35.8307L23.1873 35.7798L23.69 35.6759C24.0198 35.5854 24.3541 35.5109 24.6772 35.3967C25.0047 35.2984 25.3221 35.1695 25.6418 35.0475C25.7999 34.9831 25.9547 34.9096 26.1117 34.8407C26.1896 34.8056 26.2687 34.7729 26.3455 34.7344L26.5748 34.618C26.7261 34.5389 26.8831 34.4677 27.0311 34.3807L27.4784 34.1275C27.6263 34.0405 27.7698 33.9467 27.9166 33.8563C28.0635 33.7682 28.2058 33.671 28.347 33.5738C28.9185 33.1918 29.4641 32.7702 29.9938 32.3295C30.5258 31.891 31.0386 31.4253 31.5412 30.9496C32.5488 29.9991 33.5089 28.9933 34.4893 28.0021C35.4686 27.0098 36.4648 26.0255 37.5311 25.1123C38.0619 24.6535 38.6177 24.2206 39.1881 23.8081C39.7585 23.3956 40.3605 23.0238 40.975 22.6791C42.2095 21.9999 43.5175 21.4574 44.8673 21.0551C46.2193 20.6618 47.6109 20.4007 49.016 20.3046C51.824 20.117 54.6715 20.4922 57.3213 21.4461C59.9701 22.3966 62.4155 23.9008 64.4667 25.8266L64.5717 25.9249L64.5175 26.056C64.2261 26.751 63.903 27.4325 63.5427 28.0948C63.1745 28.7525 62.778 29.3933 62.3432 30.0093C61.9027 30.6207 61.4362 31.2129 60.9358 31.7746C60.4309 32.3329 59.9034 32.8708 59.3443 33.3749C57.109 35.3922 54.4388 36.9156 51.5755 37.8243C48.7122 38.7329 45.658 39.0358 42.676 38.6855C39.6941 38.343 36.7935 37.3293 34.2464 35.7482L34.1233 35.6725L34.2329 35.5798C35.4889 34.5107 36.6376 33.3184 37.8067 32.1441C38.9769 30.9744 40.1719 29.8115 41.525 28.8429C42.8714 27.8688 44.3805 27.1251 45.9629 26.6301C46.7547 26.3849 47.5646 26.195 48.3835 26.0741C49.2012 25.9543 50.0303 25.8955 50.8571 25.8978Z"/>
</mask>
<path d="M50.8571 25.8978C50.0292 25.9057 49.2035 25.9746 48.3869 26.1057C47.5702 26.2368 46.766 26.4369 45.981 26.6911C44.4121 27.2054 42.9177 27.9546 41.5917 28.9356C40.2577 29.9098 39.0796 31.0784 37.9219 32.2583C36.7664 33.4415 35.6132 34.5819 34.356 35.6725C36.894 37.2083 39.7607 38.0933 42.7065 38.4131C45.65 38.742 48.6613 38.4244 51.475 37.5124C54.2897 36.6014 56.9068 35.0859 59.089 33.0935C61.2713 31.1021 63.0695 28.8633 64.1832 26.1294C62.1692 24.2466 59.7713 22.7785 57.1768 21.853C54.5823 20.924 51.7924 20.5623 49.0488 20.7511C47.6753 20.8471 46.3165 21.1059 44.9961 21.4924C43.6779 21.888 42.4016 22.4203 41.1975 23.0859C40.6 23.4239 40.016 23.7855 39.458 24.1901C38.9012 24.5947 38.3579 25.0185 37.836 25.4717C36.789 26.3724 35.804 27.35 34.8293 28.3412C33.8534 29.3312 32.8842 30.3359 31.8654 31.2965C31.356 31.7768 30.8353 32.247 30.2931 32.6934C29.7521 33.1421 29.1941 33.5715 28.6068 33.9625C28.4611 34.062 28.3153 34.1614 28.164 34.2519C28.0138 34.3445 27.8658 34.4406 27.7133 34.5287L27.2513 34.7887C27.0989 34.878 26.9373 34.9503 26.7803 35.0317L26.5431 35.1515C26.4641 35.1899 26.3816 35.2238 26.3014 35.26C26.1388 35.33 25.9795 35.4058 25.8157 35.4724C25.4848 35.599 25.1561 35.7312 24.8172 35.8318C24.4829 35.9482 24.1361 36.0262 23.795 36.1189L23.2743 36.2251L23.0134 36.2771L22.7502 36.3167C22.0499 36.4218 21.3417 36.4704 20.6335 36.4636C19.2182 36.45 17.8074 36.2172 16.4611 35.7843C15.7879 35.5674 15.1316 35.2995 14.4991 34.9842C13.8677 34.6655 13.2589 34.3027 12.6794 33.8993C10.3684 32.2718 8.53637 29.9708 7.49721 27.3387L7.43848 27.1884L7.56837 27.0946C9.51001 25.6898 11.8447 24.8795 14.2156 24.6693C16.5898 24.4591 19.0104 24.8569 21.1983 25.7881C22.2916 26.256 23.3263 26.8561 24.2886 27.5523C25.2487 28.2519 26.1263 29.0588 26.9283 29.9313C28.5243 31.6864 29.7939 33.7184 30.7607 35.8736C31.2476 36.9507 31.6553 38.0627 31.9919 39.1952C32.1647 39.7602 32.3082 40.3332 32.4449 40.9073C32.5714 41.4837 32.69 42.0635 32.7792 42.6466C32.9565 43.813 33.0943 44.9827 33.1971 46.1558C33.2559 46.7412 33.2943 47.3289 33.3417 47.9154C33.379 48.5031 33.4242 49.0896 33.4535 49.6773C33.5857 52.0269 33.6602 54.3788 33.6839 56.7317C33.711 59.0836 33.6851 61.4366 33.5947 63.7873C33.6252 62.6119 33.6376 61.4354 33.6376 60.2601C33.6331 59.0847 33.6229 57.9082 33.597 56.7329C33.5495 54.3822 33.4524 52.0326 33.2976 49.6864C33.2626 49.0998 33.2118 48.5144 33.1689 47.9278C33.1147 47.3424 33.0717 46.757 33.0074 46.1727C32.8933 45.0041 32.7442 43.8378 32.5567 42.6817C32.3624 41.5267 32.0913 40.3852 31.7502 39.2652C31.4102 38.1452 31.0002 37.0467 30.5123 35.9833C29.5443 33.8563 28.2769 31.8571 26.6967 30.1404C25.9027 29.2871 25.0375 28.4994 24.0921 27.8202C23.1455 27.1432 22.1312 26.5634 21.0605 26.1125C18.9178 25.2163 16.5605 24.8445 14.2506 25.0626C11.9464 25.2818 9.75512 25.9096 7.88351 27.2715C8.89668 29.8222 10.6825 31.9701 12.9268 33.5444C13.4904 33.9354 14.0812 34.2858 14.6934 34.5932C15.3067 34.8972 15.9437 35.156 16.5966 35.3651C17.9023 35.7821 19.269 36.0047 20.638 36.0149C21.3225 36.0206 22.007 35.972 22.6824 35.8691L22.9355 35.8307L23.1873 35.7798L23.69 35.6759C24.0198 35.5854 24.3541 35.5109 24.6772 35.3967C25.0047 35.2984 25.3221 35.1695 25.6418 35.0475C25.7999 34.9831 25.9547 34.9096 26.1117 34.8407C26.1896 34.8056 26.2687 34.7729 26.3455 34.7344L26.5748 34.618C26.7261 34.5389 26.8831 34.4677 27.0311 34.3807L27.4784 34.1275C27.6263 34.0405 27.7698 33.9467 27.9166 33.8563C28.0635 33.7682 28.2058 33.671 28.347 33.5738C28.9185 33.1918 29.4641 32.7702 29.9938 32.3295C30.5258 31.891 31.0386 31.4253 31.5412 30.9496C32.5488 29.9991 33.5089 28.9933 34.4893 28.0021C35.4686 27.0098 36.4648 26.0255 37.5311 25.1123C38.0619 24.6535 38.6177 24.2206 39.1881 23.8081C39.7585 23.3956 40.3605 23.0238 40.975 22.6791C42.2095 21.9999 43.5175 21.4574 44.8673 21.0551C46.2193 20.6618 47.6109 20.4007 49.016 20.3046C51.824 20.117 54.6715 20.4922 57.3213 21.4461C59.9701 22.3966 62.4155 23.9008 64.4667 25.8266L64.5717 25.9249L64.5175 26.056C64.2261 26.751 63.903 27.4325 63.5427 28.0948C63.1745 28.7525 62.778 29.3933 62.3432 30.0093C61.9027 30.6207 61.4362 31.2129 60.9358 31.7746C60.4309 32.3329 59.9034 32.8708 59.3443 33.3749C57.109 35.3922 54.4388 36.9156 51.5755 37.8243C48.7122 38.7329 45.658 39.0358 42.676 38.6855C39.6941 38.343 36.7935 37.3293 34.2464 35.7482L34.1233 35.6725L34.2329 35.5798C35.4889 34.5107 36.6376 33.3184 37.8067 32.1441C38.9769 30.9744 40.1719 29.8115 41.525 28.8429C42.8714 27.8688 44.3805 27.1251 45.9629 26.6301C46.7547 26.3849 47.5646 26.195 48.3835 26.0741C49.2012 25.9543 50.0303 25.8955 50.8571 25.8978Z" fill="white"/>
<path d="M50.8571 25.8978C50.0292 25.9057 49.2035 25.9746 48.3869 26.1057C47.5702 26.2368 46.766 26.4369 45.981 26.6911C44.4121 27.2054 42.9177 27.9546 41.5917 28.9356C40.2577 29.9098 39.0796 31.0784 37.9219 32.2583C36.7664 33.4415 35.6132 34.5819 34.356 35.6725C36.894 37.2083 39.7607 38.0933 42.7065 38.4131C45.65 38.742 48.6613 38.4244 51.475 37.5124C54.2897 36.6014 56.9068 35.0859 59.089 33.0935C61.2713 31.1021 63.0695 28.8633 64.1832 26.1294C62.1692 24.2466 59.7713 22.7785 57.1768 21.853C54.5823 20.924 51.7924 20.5623 49.0488 20.7511C47.6753 20.8471 46.3165 21.1059 44.9961 21.4924C43.6779 21.888 42.4016 22.4203 41.1975 23.0859C40.6 23.4239 40.016 23.7855 39.458 24.1901C38.9012 24.5947 38.3579 25.0185 37.836 25.4717C36.789 26.3724 35.804 27.35 34.8293 28.3412C33.8534 29.3312 32.8842 30.3359 31.8654 31.2965C31.356 31.7768 30.8353 32.247 30.2931 32.6934C29.7521 33.1421 29.1941 33.5715 28.6068 33.9625C28.4611 34.062 28.3153 34.1614 28.164 34.2519C28.0138 34.3445 27.8658 34.4406 27.7133 34.5287L27.2513 34.7887C27.0989 34.878 26.9373 34.9503 26.7803 35.0317L26.5431 35.1515C26.4641 35.1899 26.3816 35.2238 26.3014 35.26C26.1388 35.33 25.9795 35.4058 25.8157 35.4724C25.4848 35.599 25.1561 35.7312 24.8172 35.8318C24.4829 35.9482 24.1361 36.0262 23.795 36.1189L23.2743 36.2251L23.0134 36.2771L22.7502 36.3167C22.0499 36.4218 21.3417 36.4704 20.6335 36.4636C19.2182 36.45 17.8074 36.2172 16.4611 35.7843C15.7879 35.5674 15.1316 35.2995 14.4991 34.9842C13.8677 34.6655 13.2589 34.3027 12.6794 33.8993C10.3684 32.2718 8.53637 29.9708 7.49721 27.3387L7.43848 27.1884L7.56837 27.0946C9.51001 25.6898 11.8447 24.8795 14.2156 24.6693C16.5898 24.4591 19.0104 24.8569 21.1983 25.7881C22.2916 26.256 23.3263 26.8561 24.2886 27.5523C25.2487 28.2519 26.1263 29.0588 26.9283 29.9313C28.5243 31.6864 29.7939 33.7184 30.7607 35.8736C31.2476 36.9507 31.6553 38.0627 31.9919 39.1952C32.1647 39.7602 32.3082 40.3332 32.4449 40.9073C32.5714 41.4837 32.69 42.0635 32.7792 42.6466C32.9565 43.813 33.0943 44.9827 33.1971 46.1558C33.2559 46.7412 33.2943 47.3289 33.3417 47.9154C33.379 48.5031 33.4242 49.0896 33.4535 49.6773C33.5857 52.0269 33.6602 54.3788 33.6839 56.7317C33.711 59.0836 33.6851 61.4366 33.5947 63.7873C33.6252 62.6119 33.6376 61.4354 33.6376 60.2601C33.6331 59.0847 33.6229 57.9082 33.597 56.7329C33.5495 54.3822 33.4524 52.0326 33.2976 49.6864C33.2626 49.0998 33.2118 48.5144 33.1689 47.9278C33.1147 47.3424 33.0717 46.757 33.0074 46.1727C32.8933 45.0041 32.7442 43.8378 32.5567 42.6817C32.3624 41.5267 32.0913 40.3852 31.7502 39.2652C31.4102 38.1452 31.0002 37.0467 30.5123 35.9833C29.5443 33.8563 28.2769 31.8571 26.6967 30.1404C25.9027 29.2871 25.0375 28.4994 24.0921 27.8202C23.1455 27.1432 22.1312 26.5634 21.0605 26.1125C18.9178 25.2163 16.5605 24.8445 14.2506 25.0626C11.9464 25.2818 9.75512 25.9096 7.88351 27.2715C8.89668 29.8222 10.6825 31.9701 12.9268 33.5444C13.4904 33.9354 14.0812 34.2858 14.6934 34.5932C15.3067 34.8972 15.9437 35.156 16.5966 35.3651C17.9023 35.7821 19.269 36.0047 20.638 36.0149C21.3225 36.0206 22.007 35.972 22.6824 35.8691L22.9355 35.8307L23.1873 35.7798L23.69 35.6759C24.0198 35.5854 24.3541 35.5109 24.6772 35.3967C25.0047 35.2984 25.3221 35.1695 25.6418 35.0475C25.7999 34.9831 25.9547 34.9096 26.1117 34.8407C26.1896 34.8056 26.2687 34.7729 26.3455 34.7344L26.5748 34.618C26.7261 34.5389 26.8831 34.4677 27.0311 34.3807L27.4784 34.1275C27.6263 34.0405 27.7698 33.9467 27.9166 33.8563C28.0635 33.7682 28.2058 33.671 28.347 33.5738C28.9185 33.1918 29.4641 32.7702 29.9938 32.3295C30.5258 31.891 31.0386 31.4253 31.5412 30.9496C32.5488 29.9991 33.5089 28.9933 34.4893 28.0021C35.4686 27.0098 36.4648 26.0255 37.5311 25.1123C38.0619 24.6535 38.6177 24.2206 39.1881 23.8081C39.7585 23.3956 40.3605 23.0238 40.975 22.6791C42.2095 21.9999 43.5175 21.4574 44.8673 21.0551C46.2193 20.6618 47.6109 20.4007 49.016 20.3046C51.824 20.117 54.6715 20.4922 57.3213 21.4461C59.9701 22.3966 62.4155 23.9008 64.4667 25.8266L64.5717 25.9249L64.5175 26.056C64.2261 26.751 63.903 27.4325 63.5427 28.0948C63.1745 28.7525 62.778 29.3933 62.3432 30.0093C61.9027 30.6207 61.4362 31.2129 60.9358 31.7746C60.4309 32.3329 59.9034 32.8708 59.3443 33.3749C57.109 35.3922 54.4388 36.9156 51.5755 37.8243C48.7122 38.7329 45.658 39.0358 42.676 38.6855C39.6941 38.343 36.7935 37.3293 34.2464 35.7482L34.1233 35.6725L34.2329 35.5798C35.4889 34.5107 36.6376 33.3184 37.8067 32.1441C38.9769 30.9744 40.1719 29.8115 41.525 28.8429C42.8714 27.8688 44.3805 27.1251 45.9629 26.6301C46.7547 26.3849 47.5646 26.195 48.3835 26.0741C49.2012 25.9543 50.0303 25.8955 50.8571 25.8978Z" stroke="white" stroke-width="1.125" mask="url(#path-2-outside-1_300_341)"/>
<defs>
<linearGradient id="paint0_linear_300_341" x1="4.16622e-07" y1="13.5" x2="74.4306" y2="18.7622" gradientUnits="userSpaceOnUse">
<stop stop-color="#30C917"/>
<stop offset="1" stop-color="#279A13"/>
</linearGradient>
</defs>
</svg>
