<svg width="36" height="36" viewBox="0 0 36 36" fill="none" xmlns="http://www.w3.org/2000/svg">
<circle cx="18" cy="18" r="18" fill="url(#paint0_linear_300_1018)"/>
<mask id="path-2-outside-1_300_1018" maskUnits="userSpaceOnUse" x="2.71875" y="9.12891" width="30" height="23" fill="black">
<rect fill="white" x="2.71875" y="9.12891" width="30" height="23"/>
<path d="M25.4281 12.9489C25.0141 12.9528 24.6013 12.9873 24.1929 13.0529C23.7846 13.1184 23.3825 13.2184 22.99 13.3456C22.2056 13.6027 21.4584 13.9773 20.7954 14.4678C20.1284 14.9549 19.5393 15.5392 18.9605 16.1291C18.3827 16.7208 17.8061 17.2909 17.1775 17.8362C18.4465 18.6042 19.8799 19.0466 21.3528 19.2065C22.8245 19.371 24.3302 19.2122 25.737 18.7562C27.1444 18.3007 28.4529 17.543 29.544 16.5467C30.6351 15.5511 31.5342 14.4316 32.0911 13.0647C31.0841 12.1233 29.8851 11.3893 28.5879 10.9265C27.2906 10.462 25.8957 10.2812 24.5239 10.3755C23.8371 10.4236 23.1577 10.553 22.4975 10.7462C21.8385 10.944 21.2003 11.2101 20.5983 11.543C20.2995 11.7119 20.0075 11.8928 19.7285 12.0951C19.4501 12.2974 19.1785 12.5093 18.9175 12.7359C18.394 13.1862 17.9015 13.675 17.4141 14.1706C16.9262 14.6656 16.4416 15.1679 15.9322 15.6483C15.6775 15.8884 15.4172 16.1235 15.1461 16.3467C14.8756 16.571 14.5966 16.7858 14.3029 16.9813C14.23 17.031 14.1572 17.0807 14.0815 17.1259C14.0064 17.1723 13.9324 17.2203 13.8562 17.2644L13.6252 17.3943C13.5489 17.439 13.4682 17.4752 13.3897 17.5158L13.2711 17.5757C13.2315 17.5949 13.1903 17.6119 13.1502 17.63C13.0689 17.665 12.9893 17.7029 12.9074 17.7362C12.7419 17.7995 12.5776 17.8656 12.4081 17.9159C12.241 17.9741 12.0676 18.0131 11.897 18.0594L11.6367 18.1126L11.5062 18.1385L11.3746 18.1583C11.0245 18.2109 10.6704 18.2352 10.3163 18.2318C9.60862 18.225 8.90323 18.1086 8.23004 17.8922C7.89345 17.7837 7.56532 17.6498 7.24906 17.4921C6.93336 17.3327 6.62895 17.1514 6.33923 16.9496C5.18373 16.1359 4.2677 14.9854 3.74812 13.6694L3.71875 13.5942L3.7837 13.5473C4.75452 12.8449 5.92187 12.4398 7.1073 12.3346C8.29443 12.2295 9.5047 12.4284 10.5986 12.8941C11.1453 13.128 11.6626 13.4281 12.1438 13.7762C12.6239 14.1259 13.0627 14.5294 13.4637 14.9656C14.2617 15.8432 14.8965 16.8592 15.3799 17.9368C15.6233 18.4753 15.8272 19.0314 15.9955 19.5976C16.0819 19.8801 16.1536 20.1666 16.2219 20.4537C16.2852 20.7419 16.3445 21.0317 16.3891 21.3233C16.4778 21.9065 16.5467 22.4913 16.5981 23.0779C16.6274 23.3706 16.6466 23.6644 16.6704 23.9577C16.689 24.2515 16.7116 24.5448 16.7263 24.8387C16.7923 26.0135 16.8296 27.1894 16.8415 28.3659C16.855 29.5418 16.842 30.7183 16.7969 31.8936C16.8121 31.306 16.8183 30.7177 16.8183 30.13C16.8161 29.5424 16.811 28.9541 16.798 28.3664C16.7743 27.1911 16.7257 26.0163 16.6483 24.8432C16.6308 24.5499 16.6054 24.2572 16.584 23.9639C16.5568 23.6712 16.5354 23.3785 16.5032 23.0864C16.4462 22.5021 16.3716 21.9189 16.2779 21.3408C16.1807 20.7633 16.0452 20.1926 15.8746 19.6326C15.7046 19.0726 15.4996 18.5234 15.2556 17.9916C14.7716 16.9282 14.138 15.9285 13.3479 15.0702C12.9509 14.6435 12.5183 14.2497 12.0456 13.9101C11.5723 13.5716 11.0651 13.2817 10.5297 13.0562C9.45839 12.6081 8.27974 12.4222 7.12481 12.5313C5.9727 12.6409 4.87707 12.9548 3.94127 13.6357C4.44785 14.9111 5.34074 15.985 6.46291 16.7722C6.74473 16.9677 7.0401 17.1429 7.3462 17.2966C7.65286 17.4486 7.97138 17.578 8.29781 17.6825C8.95067 17.891 9.63403 18.0024 10.3185 18.0075C10.6608 18.0103 11.003 17.986 11.3407 17.9346L11.4672 17.9153L11.5932 17.8899L11.8445 17.8379C12.0094 17.7927 12.1766 17.7554 12.3381 17.6984C12.5019 17.6492 12.6606 17.5848 12.8204 17.5237C12.8995 17.4915 12.9768 17.4548 13.0553 17.4203C13.0943 17.4028 13.1338 17.3864 13.1722 17.3672L13.2869 17.309C13.3626 17.2695 13.4411 17.2339 13.5151 17.1904L13.7387 17.0638C13.8127 17.0203 13.8844 16.9734 13.9578 16.9282C14.0312 16.8841 14.1024 16.8355 14.173 16.7869C14.4588 16.5959 14.7315 16.3851 14.9964 16.1647C15.2624 15.9455 15.5188 15.7127 15.7701 15.4748C16.2739 14.9995 16.7539 14.4966 17.2442 14.0011C17.7338 13.5049 18.2319 13.0127 18.765 12.5562C19.0305 12.3267 19.3083 12.1103 19.5935 11.9041C19.8788 11.6978 20.1798 11.5119 20.487 11.3395C21.1043 10.9999 21.7583 10.7287 22.4332 10.5275C23.1092 10.3309 23.805 10.2004 24.5075 10.1523C25.9115 10.0585 27.3353 10.2461 28.6602 10.723C29.9845 11.1983 31.2072 11.9504 32.2329 12.9133L32.2854 12.9624L32.2583 13.028C32.1126 13.3755 31.951 13.7163 31.7709 14.0474C31.5868 14.3763 31.3885 14.6967 31.1711 15.0046C30.9508 15.3103 30.7176 15.6064 30.4674 15.8873C30.215 16.1664 29.9512 16.4354 29.6717 16.6874C28.554 17.6961 27.2189 18.4578 25.7873 18.9121C24.3556 19.3665 22.8285 19.5179 21.3375 19.3427C19.8466 19.1715 18.3963 18.6646 17.1227 17.8741L17.0612 17.8362L17.116 17.7899C17.744 17.2553 18.3183 16.6592 18.9029 16.0721C19.4879 15.4872 20.0855 14.9057 20.762 14.4215C21.4352 13.9344 22.1897 13.5626 22.981 13.3151C23.3769 13.1924 23.7818 13.0975 24.1913 13.037C24.6001 12.9771 25.0147 12.9478 25.4281 12.9489Z"/>
</mask>
<path d="M25.4281 12.9489C25.0141 12.9528 24.6013 12.9873 24.1929 13.0529C23.7846 13.1184 23.3825 13.2184 22.99 13.3456C22.2056 13.6027 21.4584 13.9773 20.7954 14.4678C20.1284 14.9549 19.5393 15.5392 18.9605 16.1291C18.3827 16.7208 17.8061 17.2909 17.1775 17.8362C18.4465 18.6042 19.8799 19.0466 21.3528 19.2065C22.8245 19.371 24.3302 19.2122 25.737 18.7562C27.1444 18.3007 28.4529 17.543 29.544 16.5467C30.6351 15.5511 31.5342 14.4316 32.0911 13.0647C31.0841 12.1233 29.8851 11.3893 28.5879 10.9265C27.2906 10.462 25.8957 10.2812 24.5239 10.3755C23.8371 10.4236 23.1577 10.553 22.4975 10.7462C21.8385 10.944 21.2003 11.2101 20.5983 11.543C20.2995 11.7119 20.0075 11.8928 19.7285 12.0951C19.4501 12.2974 19.1785 12.5093 18.9175 12.7359C18.394 13.1862 17.9015 13.675 17.4141 14.1706C16.9262 14.6656 16.4416 15.1679 15.9322 15.6483C15.6775 15.8884 15.4172 16.1235 15.1461 16.3467C14.8756 16.571 14.5966 16.7858 14.3029 16.9813C14.23 17.031 14.1572 17.0807 14.0815 17.1259C14.0064 17.1723 13.9324 17.2203 13.8562 17.2644L13.6252 17.3943C13.5489 17.439 13.4682 17.4752 13.3897 17.5158L13.2711 17.5757C13.2315 17.5949 13.1903 17.6119 13.1502 17.63C13.0689 17.665 12.9893 17.7029 12.9074 17.7362C12.7419 17.7995 12.5776 17.8656 12.4081 17.9159C12.241 17.9741 12.0676 18.0131 11.897 18.0594L11.6367 18.1126L11.5062 18.1385L11.3746 18.1583C11.0245 18.2109 10.6704 18.2352 10.3163 18.2318C9.60862 18.225 8.90323 18.1086 8.23004 17.8922C7.89345 17.7837 7.56532 17.6498 7.24906 17.4921C6.93336 17.3327 6.62895 17.1514 6.33923 16.9496C5.18373 16.1359 4.2677 14.9854 3.74812 13.6694L3.71875 13.5942L3.7837 13.5473C4.75452 12.8449 5.92187 12.4398 7.1073 12.3346C8.29443 12.2295 9.5047 12.4284 10.5986 12.8941C11.1453 13.128 11.6626 13.4281 12.1438 13.7762C12.6239 14.1259 13.0627 14.5294 13.4637 14.9656C14.2617 15.8432 14.8965 16.8592 15.3799 17.9368C15.6233 18.4753 15.8272 19.0314 15.9955 19.5976C16.0819 19.8801 16.1536 20.1666 16.2219 20.4537C16.2852 20.7419 16.3445 21.0317 16.3891 21.3233C16.4778 21.9065 16.5467 22.4913 16.5981 23.0779C16.6274 23.3706 16.6466 23.6644 16.6704 23.9577C16.689 24.2515 16.7116 24.5448 16.7263 24.8387C16.7923 26.0135 16.8296 27.1894 16.8415 28.3659C16.855 29.5418 16.842 30.7183 16.7969 31.8936C16.8121 31.306 16.8183 30.7177 16.8183 30.13C16.8161 29.5424 16.811 28.9541 16.798 28.3664C16.7743 27.1911 16.7257 26.0163 16.6483 24.8432C16.6308 24.5499 16.6054 24.2572 16.584 23.9639C16.5568 23.6712 16.5354 23.3785 16.5032 23.0864C16.4462 22.5021 16.3716 21.9189 16.2779 21.3408C16.1807 20.7633 16.0452 20.1926 15.8746 19.6326C15.7046 19.0726 15.4996 18.5234 15.2556 17.9916C14.7716 16.9282 14.138 15.9285 13.3479 15.0702C12.9509 14.6435 12.5183 14.2497 12.0456 13.9101C11.5723 13.5716 11.0651 13.2817 10.5297 13.0562C9.45839 12.6081 8.27974 12.4222 7.12481 12.5313C5.9727 12.6409 4.87707 12.9548 3.94127 13.6357C4.44785 14.9111 5.34074 15.985 6.46291 16.7722C6.74473 16.9677 7.0401 17.1429 7.3462 17.2966C7.65286 17.4486 7.97138 17.578 8.29781 17.6825C8.95067 17.891 9.63403 18.0024 10.3185 18.0075C10.6608 18.0103 11.003 17.986 11.3407 17.9346L11.4672 17.9153L11.5932 17.8899L11.8445 17.8379C12.0094 17.7927 12.1766 17.7554 12.3381 17.6984C12.5019 17.6492 12.6606 17.5848 12.8204 17.5237C12.8995 17.4915 12.9768 17.4548 13.0553 17.4203C13.0943 17.4028 13.1338 17.3864 13.1722 17.3672L13.2869 17.309C13.3626 17.2695 13.4411 17.2339 13.5151 17.1904L13.7387 17.0638C13.8127 17.0203 13.8844 16.9734 13.9578 16.9282C14.0312 16.8841 14.1024 16.8355 14.173 16.7869C14.4588 16.5959 14.7315 16.3851 14.9964 16.1647C15.2624 15.9455 15.5188 15.7127 15.7701 15.4748C16.2739 14.9995 16.7539 14.4966 17.2442 14.0011C17.7338 13.5049 18.2319 13.0127 18.765 12.5562C19.0305 12.3267 19.3083 12.1103 19.5935 11.9041C19.8788 11.6978 20.1798 11.5119 20.487 11.3395C21.1043 10.9999 21.7583 10.7287 22.4332 10.5275C23.1092 10.3309 23.805 10.2004 24.5075 10.1523C25.9115 10.0585 27.3353 10.2461 28.6602 10.723C29.9845 11.1983 31.2072 11.9504 32.2329 12.9133L32.2854 12.9624L32.2583 13.028C32.1126 13.3755 31.951 13.7163 31.7709 14.0474C31.5868 14.3763 31.3885 14.6967 31.1711 15.0046C30.9508 15.3103 30.7176 15.6064 30.4674 15.8873C30.215 16.1664 29.9512 16.4354 29.6717 16.6874C28.554 17.6961 27.2189 18.4578 25.7873 18.9121C24.3556 19.3665 22.8285 19.5179 21.3375 19.3427C19.8466 19.1715 18.3963 18.6646 17.1227 17.8741L17.0612 17.8362L17.116 17.7899C17.744 17.2553 18.3183 16.6592 18.9029 16.0721C19.4879 15.4872 20.0855 14.9057 20.762 14.4215C21.4352 13.9344 22.1897 13.5626 22.981 13.3151C23.3769 13.1924 23.7818 13.0975 24.1913 13.037C24.6001 12.9771 25.0147 12.9478 25.4281 12.9489Z" fill="white"/>
<path d="M25.4281 12.9489C25.0141 12.9528 24.6013 12.9873 24.1929 13.0529C23.7846 13.1184 23.3825 13.2184 22.99 13.3456C22.2056 13.6027 21.4584 13.9773 20.7954 14.4678C20.1284 14.9549 19.5393 15.5392 18.9605 16.1291C18.3827 16.7208 17.8061 17.2909 17.1775 17.8362C18.4465 18.6042 19.8799 19.0466 21.3528 19.2065C22.8245 19.371 24.3302 19.2122 25.737 18.7562C27.1444 18.3007 28.4529 17.543 29.544 16.5467C30.6351 15.5511 31.5342 14.4316 32.0911 13.0647C31.0841 12.1233 29.8851 11.3893 28.5879 10.9265C27.2906 10.462 25.8957 10.2812 24.5239 10.3755C23.8371 10.4236 23.1577 10.553 22.4975 10.7462C21.8385 10.944 21.2003 11.2101 20.5983 11.543C20.2995 11.7119 20.0075 11.8928 19.7285 12.0951C19.4501 12.2974 19.1785 12.5093 18.9175 12.7359C18.394 13.1862 17.9015 13.675 17.4141 14.1706C16.9262 14.6656 16.4416 15.1679 15.9322 15.6483C15.6775 15.8884 15.4172 16.1235 15.1461 16.3467C14.8756 16.571 14.5966 16.7858 14.3029 16.9813C14.23 17.031 14.1572 17.0807 14.0815 17.1259C14.0064 17.1723 13.9324 17.2203 13.8562 17.2644L13.6252 17.3943C13.5489 17.439 13.4682 17.4752 13.3897 17.5158L13.2711 17.5757C13.2315 17.5949 13.1903 17.6119 13.1502 17.63C13.0689 17.665 12.9893 17.7029 12.9074 17.7362C12.7419 17.7995 12.5776 17.8656 12.4081 17.9159C12.241 17.9741 12.0676 18.0131 11.897 18.0594L11.6367 18.1126L11.5062 18.1385L11.3746 18.1583C11.0245 18.2109 10.6704 18.2352 10.3163 18.2318C9.60862 18.225 8.90323 18.1086 8.23004 17.8922C7.89345 17.7837 7.56532 17.6498 7.24906 17.4921C6.93336 17.3327 6.62895 17.1514 6.33923 16.9496C5.18373 16.1359 4.2677 14.9854 3.74812 13.6694L3.71875 13.5942L3.7837 13.5473C4.75452 12.8449 5.92187 12.4398 7.1073 12.3346C8.29443 12.2295 9.5047 12.4284 10.5986 12.8941C11.1453 13.128 11.6626 13.4281 12.1438 13.7762C12.6239 14.1259 13.0627 14.5294 13.4637 14.9656C14.2617 15.8432 14.8965 16.8592 15.3799 17.9368C15.6233 18.4753 15.8272 19.0314 15.9955 19.5976C16.0819 19.8801 16.1536 20.1666 16.2219 20.4537C16.2852 20.7419 16.3445 21.0317 16.3891 21.3233C16.4778 21.9065 16.5467 22.4913 16.5981 23.0779C16.6274 23.3706 16.6466 23.6644 16.6704 23.9577C16.689 24.2515 16.7116 24.5448 16.7263 24.8387C16.7923 26.0135 16.8296 27.1894 16.8415 28.3659C16.855 29.5418 16.842 30.7183 16.7969 31.8936C16.8121 31.306 16.8183 30.7177 16.8183 30.13C16.8161 29.5424 16.811 28.9541 16.798 28.3664C16.7743 27.1911 16.7257 26.0163 16.6483 24.8432C16.6308 24.5499 16.6054 24.2572 16.584 23.9639C16.5568 23.6712 16.5354 23.3785 16.5032 23.0864C16.4462 22.5021 16.3716 21.9189 16.2779 21.3408C16.1807 20.7633 16.0452 20.1926 15.8746 19.6326C15.7046 19.0726 15.4996 18.5234 15.2556 17.9916C14.7716 16.9282 14.138 15.9285 13.3479 15.0702C12.9509 14.6435 12.5183 14.2497 12.0456 13.9101C11.5723 13.5716 11.0651 13.2817 10.5297 13.0562C9.45839 12.6081 8.27974 12.4222 7.12481 12.5313C5.9727 12.6409 4.87707 12.9548 3.94127 13.6357C4.44785 14.9111 5.34074 15.985 6.46291 16.7722C6.74473 16.9677 7.0401 17.1429 7.3462 17.2966C7.65286 17.4486 7.97138 17.578 8.29781 17.6825C8.95067 17.891 9.63403 18.0024 10.3185 18.0075C10.6608 18.0103 11.003 17.986 11.3407 17.9346L11.4672 17.9153L11.5932 17.8899L11.8445 17.8379C12.0094 17.7927 12.1766 17.7554 12.3381 17.6984C12.5019 17.6492 12.6606 17.5848 12.8204 17.5237C12.8995 17.4915 12.9768 17.4548 13.0553 17.4203C13.0943 17.4028 13.1338 17.3864 13.1722 17.3672L13.2869 17.309C13.3626 17.2695 13.4411 17.2339 13.5151 17.1904L13.7387 17.0638C13.8127 17.0203 13.8844 16.9734 13.9578 16.9282C14.0312 16.8841 14.1024 16.8355 14.173 16.7869C14.4588 16.5959 14.7315 16.3851 14.9964 16.1647C15.2624 15.9455 15.5188 15.7127 15.7701 15.4748C16.2739 14.9995 16.7539 14.4966 17.2442 14.0011C17.7338 13.5049 18.2319 13.0127 18.765 12.5562C19.0305 12.3267 19.3083 12.1103 19.5935 11.9041C19.8788 11.6978 20.1798 11.5119 20.487 11.3395C21.1043 10.9999 21.7583 10.7287 22.4332 10.5275C23.1092 10.3309 23.805 10.2004 24.5075 10.1523C25.9115 10.0585 27.3353 10.2461 28.6602 10.723C29.9845 11.1983 31.2072 11.9504 32.2329 12.9133L32.2854 12.9624L32.2583 13.028C32.1126 13.3755 31.951 13.7163 31.7709 14.0474C31.5868 14.3763 31.3885 14.6967 31.1711 15.0046C30.9508 15.3103 30.7176 15.6064 30.4674 15.8873C30.215 16.1664 29.9512 16.4354 29.6717 16.6874C28.554 17.6961 27.2189 18.4578 25.7873 18.9121C24.3556 19.3665 22.8285 19.5179 21.3375 19.3427C19.8466 19.1715 18.3963 18.6646 17.1227 17.8741L17.0612 17.8362L17.116 17.7899C17.744 17.2553 18.3183 16.6592 18.9029 16.0721C19.4879 15.4872 20.0855 14.9057 20.762 14.4215C21.4352 13.9344 22.1897 13.5626 22.981 13.3151C23.3769 13.1924 23.7818 13.0975 24.1913 13.037C24.6001 12.9771 25.0147 12.9478 25.4281 12.9489Z" stroke="white" stroke-width="0.72" mask="url(#path-2-outside-1_300_1018)"/>
<defs>
<linearGradient id="paint0_linear_300_1018" x1="2.08311e-07" y1="6.75" x2="37.2153" y2="9.38112" gradientUnits="userSpaceOnUse">
<stop stop-color="#30C917"/>
<stop offset="1" stop-color="#279A13"/>
</linearGradient>
</defs>
</svg>
