<svg width="100" height="100" viewBox="0 0 100 100" fill="none" xmlns="http://www.w3.org/2000/svg">
<circle cx="50" cy="50" r="50" fill="url(#paint0_linear_300_1012)"/>
<mask id="path-2-outside-1_300_1012" maskUnits="userSpaceOnUse" x="9.33105" y="27.1367" width="81" height="62" fill="black">
<rect fill="white" x="9.33105" y="27.1367" width="81" height="62"/>
<path d="M70.6347 35.97C69.4848 35.981 68.338 36.0767 67.2038 36.2588C66.0696 36.4409 64.9526 36.7187 63.8623 37.0719C61.6833 37.7861 59.6078 38.8268 57.7661 40.1892C55.9134 41.5423 54.2771 43.1653 52.6691 44.804C51.0643 46.4475 49.4626 48.0312 47.7165 49.546C51.2415 51.6791 55.2231 52.9082 59.3145 53.3524C63.4027 53.8092 67.585 53.3681 71.4928 52.1014C75.4022 50.8362 79.0371 48.7313 82.0679 45.964C85.0988 43.1983 87.5963 40.0888 89.1431 36.2918C86.346 33.6767 83.0155 31.6377 79.412 30.3522C75.8085 29.0619 71.9337 28.5596 68.1231 28.8218C66.2155 28.9552 64.3283 29.3146 62.4944 29.8515C60.6636 30.4008 58.8909 31.1402 57.2186 32.0647C56.3887 32.534 55.5776 33.0363 54.8027 33.5982C54.0293 34.1602 53.2747 34.7488 52.5499 35.3782C51.0956 36.6293 49.7277 37.987 48.3738 39.3636C47.0184 40.7386 45.6724 42.134 44.2574 43.4682C43.5498 44.1354 42.8266 44.7883 42.0736 45.4083C41.3222 46.0315 40.5472 46.628 39.7314 47.1711C39.5291 47.3092 39.3267 47.4473 39.1165 47.5729C38.9078 47.7016 38.7023 47.835 38.4906 47.9575L37.8489 48.3185C37.6371 48.4425 37.4128 48.543 37.1947 48.656L36.8653 48.8223C36.7555 48.8757 36.641 48.9228 36.5296 48.973C36.3037 49.0704 36.0825 49.1755 35.855 49.2681C35.3954 49.4439 34.9388 49.6276 34.4682 49.7673C34.0039 49.929 33.5222 50.0373 33.0485 50.166L32.3253 50.3135L31.9629 50.3857L31.5974 50.4407C30.6247 50.5866 29.6411 50.6541 28.6575 50.6447C26.6918 50.6259 24.7324 50.3025 22.8624 49.7014C21.9274 49.4 21.016 49.028 20.1375 48.59C19.2605 48.1474 18.4149 47.6435 17.6102 47.0832C14.4005 44.8229 11.8559 41.627 10.4126 37.9713L10.3311 37.7625L10.5115 37.6323C13.2082 35.6812 16.4508 34.5557 19.7437 34.2638C23.0413 33.9718 26.4031 34.5243 29.4419 35.8177C30.9604 36.4676 32.3974 37.3011 33.734 38.268C35.0675 39.2396 36.2864 40.3603 37.4002 41.5721C39.6169 44.0098 41.3802 46.832 42.7231 49.8254C43.3992 51.3212 43.9656 52.8658 44.4331 54.4386C44.6731 55.2234 44.8723 56.0192 45.0621 56.8166C45.2378 57.6171 45.4026 58.4224 45.5265 59.2323C45.7728 60.8522 45.9642 62.4768 46.1069 64.1061C46.1885 64.9192 46.2419 65.7354 46.3077 66.5501C46.3595 67.3663 46.4223 68.1809 46.4631 68.9972C46.6466 72.2605 46.7501 75.5269 46.7831 78.795C46.8207 82.0614 46.7847 85.3294 46.6592 88.5943C46.7015 86.9619 46.7188 85.3279 46.7188 83.6954C46.7125 82.063 46.6984 80.429 46.6623 78.7965C46.5964 75.5316 46.4615 72.2683 46.2466 69.0097C46.1979 68.1951 46.1273 67.382 46.0677 66.5673C45.9924 65.7542 45.9328 64.9412 45.8434 64.1297C45.6849 62.5066 45.4779 60.8867 45.2175 59.281C44.9476 57.6768 44.5711 56.0914 44.0973 54.5359C43.6251 52.9804 43.0557 51.4547 42.378 49.9776C41.0335 47.0235 39.2734 44.2468 37.0787 41.8625C35.9758 40.6774 34.7741 39.5833 33.4611 38.64C32.1464 37.6998 30.7377 36.8945 29.2505 36.2682C26.2745 35.0235 23.0005 34.5071 19.7923 34.81C16.592 35.1145 13.5486 35.9865 10.9492 37.8779C12.3563 41.4206 14.8366 44.4038 17.9537 46.5903C18.7365 47.1334 19.557 47.62 20.4073 48.0469C21.2591 48.4692 22.1439 48.8286 23.0507 49.119C24.8642 49.6982 26.7624 50.0074 28.6637 50.0216C29.6144 50.0294 30.5651 49.9619 31.5032 49.8191L31.8546 49.7657L32.2045 49.6951L32.9026 49.5507C33.3607 49.4251 33.825 49.3215 34.2737 49.163C34.7286 49.0264 35.1695 48.8475 35.6134 48.6779C35.833 48.5885 36.048 48.4864 36.266 48.3907C36.3743 48.342 36.4841 48.2965 36.5908 48.2431L36.9092 48.0815C37.1194 47.9716 37.3375 47.8727 37.543 47.7518L38.1642 47.4002C38.3698 47.2794 38.569 47.1491 38.7729 47.0235C38.9769 46.9011 39.1745 46.7661 39.3706 46.6311C40.1644 46.1006 40.9221 45.5151 41.6579 44.9029C42.3968 44.2939 43.109 43.6472 43.8071 42.9864C45.2065 41.6663 46.5399 40.2693 47.9016 38.8927C49.2618 37.5145 50.6454 36.1474 52.1263 34.8791C52.8637 34.2418 53.6355 33.6406 54.4277 33.0677C55.22 32.4948 56.0561 31.9784 56.9095 31.4996C58.6242 30.5562 60.4408 29.8028 62.3155 29.244C64.1933 28.6978 66.1261 28.3352 68.0776 28.2018C71.9776 27.9412 75.9325 28.4623 79.6128 29.7871C83.2916 31.1072 86.688 33.1964 89.5369 35.8711L89.6828 36.0077L89.6075 36.1897C89.2027 37.1551 88.7541 38.1016 88.2536 39.0214C87.7422 39.935 87.1916 40.8249 86.5876 41.6804C85.9758 42.5296 85.3279 43.3521 84.6329 44.1322C83.9317 44.9076 83.199 45.6548 82.4225 46.3548C79.3179 49.1567 75.6093 51.2726 71.6325 52.5346C67.6556 53.7966 63.4137 54.2173 59.2721 53.7307C55.1305 53.2551 51.1019 51.8471 47.5643 49.6511L47.3933 49.546L47.5455 49.4172C49.29 47.9324 50.8854 46.2764 52.5091 44.6455C54.1344 43.0209 55.7941 41.4057 57.6735 40.0605C59.5435 38.7075 61.6394 37.6746 63.8372 36.9871C64.9369 36.6465 66.0618 36.3828 67.1991 36.2149C68.3349 36.0485 69.4864 35.9669 70.6347 35.97Z"/>
</mask>
<path d="M70.6347 35.97C69.4848 35.981 68.338 36.0767 67.2038 36.2588C66.0696 36.4409 64.9526 36.7187 63.8623 37.0719C61.6833 37.7861 59.6078 38.8268 57.7661 40.1892C55.9134 41.5423 54.2771 43.1653 52.6691 44.804C51.0643 46.4475 49.4626 48.0312 47.7165 49.546C51.2415 51.6791 55.2231 52.9082 59.3145 53.3524C63.4027 53.8092 67.585 53.3681 71.4928 52.1014C75.4022 50.8362 79.0371 48.7313 82.0679 45.964C85.0988 43.1983 87.5963 40.0888 89.1431 36.2918C86.346 33.6767 83.0155 31.6377 79.412 30.3522C75.8085 29.0619 71.9337 28.5596 68.1231 28.8218C66.2155 28.9552 64.3283 29.3146 62.4944 29.8515C60.6636 30.4008 58.8909 31.1402 57.2186 32.0647C56.3887 32.534 55.5776 33.0363 54.8027 33.5982C54.0293 34.1602 53.2747 34.7488 52.5499 35.3782C51.0956 36.6293 49.7277 37.987 48.3738 39.3636C47.0184 40.7386 45.6724 42.134 44.2574 43.4682C43.5498 44.1354 42.8266 44.7883 42.0736 45.4083C41.3222 46.0315 40.5472 46.628 39.7314 47.1711C39.5291 47.3092 39.3267 47.4473 39.1165 47.5729C38.9078 47.7016 38.7023 47.835 38.4906 47.9575L37.8489 48.3185C37.6371 48.4425 37.4128 48.543 37.1947 48.656L36.8653 48.8223C36.7555 48.8757 36.641 48.9228 36.5296 48.973C36.3037 49.0704 36.0825 49.1755 35.855 49.2681C35.3954 49.4439 34.9388 49.6276 34.4682 49.7673C34.0039 49.929 33.5222 50.0373 33.0485 50.166L32.3253 50.3135L31.9629 50.3857L31.5974 50.4407C30.6247 50.5866 29.6411 50.6541 28.6575 50.6447C26.6918 50.6259 24.7324 50.3025 22.8624 49.7014C21.9274 49.4 21.016 49.028 20.1375 48.59C19.2605 48.1474 18.4149 47.6435 17.6102 47.0832C14.4005 44.8229 11.8559 41.627 10.4126 37.9713L10.3311 37.7625L10.5115 37.6323C13.2082 35.6812 16.4508 34.5557 19.7437 34.2638C23.0413 33.9718 26.4031 34.5243 29.4419 35.8177C30.9604 36.4676 32.3974 37.3011 33.734 38.268C35.0675 39.2396 36.2864 40.3603 37.4002 41.5721C39.6169 44.0098 41.3802 46.832 42.7231 49.8254C43.3992 51.3212 43.9656 52.8658 44.4331 54.4386C44.6731 55.2234 44.8723 56.0192 45.0621 56.8166C45.2378 57.6171 45.4026 58.4224 45.5265 59.2323C45.7728 60.8522 45.9642 62.4768 46.1069 64.1061C46.1885 64.9192 46.2419 65.7354 46.3077 66.5501C46.3595 67.3663 46.4223 68.1809 46.4631 68.9972C46.6466 72.2605 46.7501 75.5269 46.7831 78.795C46.8207 82.0614 46.7847 85.3294 46.6592 88.5943C46.7015 86.9619 46.7188 85.3279 46.7188 83.6954C46.7125 82.063 46.6984 80.429 46.6623 78.7965C46.5964 75.5316 46.4615 72.2683 46.2466 69.0097C46.1979 68.1951 46.1273 67.382 46.0677 66.5673C45.9924 65.7542 45.9328 64.9412 45.8434 64.1297C45.6849 62.5066 45.4779 60.8867 45.2175 59.281C44.9476 57.6768 44.5711 56.0914 44.0973 54.5359C43.6251 52.9804 43.0557 51.4547 42.378 49.9776C41.0335 47.0235 39.2734 44.2468 37.0787 41.8625C35.9758 40.6774 34.7741 39.5833 33.4611 38.64C32.1464 37.6998 30.7377 36.8945 29.2505 36.2682C26.2745 35.0235 23.0005 34.5071 19.7923 34.81C16.592 35.1145 13.5486 35.9865 10.9492 37.8779C12.3563 41.4206 14.8366 44.4038 17.9537 46.5903C18.7365 47.1334 19.557 47.62 20.4073 48.0469C21.2591 48.4692 22.1439 48.8286 23.0507 49.119C24.8642 49.6982 26.7624 50.0074 28.6637 50.0216C29.6144 50.0294 30.5651 49.9619 31.5032 49.8191L31.8546 49.7657L32.2045 49.6951L32.9026 49.5507C33.3607 49.4251 33.825 49.3215 34.2737 49.163C34.7286 49.0264 35.1695 48.8475 35.6134 48.6779C35.833 48.5885 36.048 48.4864 36.266 48.3907C36.3743 48.342 36.4841 48.2965 36.5908 48.2431L36.9092 48.0815C37.1194 47.9716 37.3375 47.8727 37.543 47.7518L38.1642 47.4002C38.3698 47.2794 38.569 47.1491 38.7729 47.0235C38.9769 46.9011 39.1745 46.7661 39.3706 46.6311C40.1644 46.1006 40.9221 45.5151 41.6579 44.9029C42.3968 44.2939 43.109 43.6472 43.8071 42.9864C45.2065 41.6663 46.5399 40.2693 47.9016 38.8927C49.2618 37.5145 50.6454 36.1474 52.1263 34.8791C52.8637 34.2418 53.6355 33.6406 54.4277 33.0677C55.22 32.4948 56.0561 31.9784 56.9095 31.4996C58.6242 30.5562 60.4408 29.8028 62.3155 29.244C64.1933 28.6978 66.1261 28.3352 68.0776 28.2018C71.9776 27.9412 75.9325 28.4623 79.6128 29.7871C83.2916 31.1072 86.688 33.1964 89.5369 35.8711L89.6828 36.0077L89.6075 36.1897C89.2027 37.1551 88.7541 38.1016 88.2536 39.0214C87.7422 39.935 87.1916 40.8249 86.5876 41.6804C85.9758 42.5296 85.3279 43.3521 84.6329 44.1322C83.9317 44.9076 83.199 45.6548 82.4225 46.3548C79.3179 49.1567 75.6093 51.2726 71.6325 52.5346C67.6556 53.7966 63.4137 54.2173 59.2721 53.7307C55.1305 53.2551 51.1019 51.8471 47.5643 49.6511L47.3933 49.546L47.5455 49.4172C49.29 47.9324 50.8854 46.2764 52.5091 44.6455C54.1344 43.0209 55.7941 41.4057 57.6735 40.0605C59.5435 38.7075 61.6394 37.6746 63.8372 36.9871C64.9369 36.6465 66.0618 36.3828 67.1991 36.2149C68.3349 36.0485 69.4864 35.9669 70.6347 35.97Z" fill="white"/>
<path d="M70.6347 35.97C69.4848 35.981 68.338 36.0767 67.2038 36.2588C66.0696 36.4409 64.9526 36.7187 63.8623 37.0719C61.6833 37.7861 59.6078 38.8268 57.7661 40.1892C55.9134 41.5423 54.2771 43.1653 52.6691 44.804C51.0643 46.4475 49.4626 48.0312 47.7165 49.546C51.2415 51.6791 55.2231 52.9082 59.3145 53.3524C63.4027 53.8092 67.585 53.3681 71.4928 52.1014C75.4022 50.8362 79.0371 48.7313 82.0679 45.964C85.0988 43.1983 87.5963 40.0888 89.1431 36.2918C86.346 33.6767 83.0155 31.6377 79.412 30.3522C75.8085 29.0619 71.9337 28.5596 68.1231 28.8218C66.2155 28.9552 64.3283 29.3146 62.4944 29.8515C60.6636 30.4008 58.8909 31.1402 57.2186 32.0647C56.3887 32.534 55.5776 33.0363 54.8027 33.5982C54.0293 34.1602 53.2747 34.7488 52.5499 35.3782C51.0956 36.6293 49.7277 37.987 48.3738 39.3636C47.0184 40.7386 45.6724 42.134 44.2574 43.4682C43.5498 44.1354 42.8266 44.7883 42.0736 45.4083C41.3222 46.0315 40.5472 46.628 39.7314 47.1711C39.5291 47.3092 39.3267 47.4473 39.1165 47.5729C38.9078 47.7016 38.7023 47.835 38.4906 47.9575L37.8489 48.3185C37.6371 48.4425 37.4128 48.543 37.1947 48.656L36.8653 48.8223C36.7555 48.8757 36.641 48.9228 36.5296 48.973C36.3037 49.0704 36.0825 49.1755 35.855 49.2681C35.3954 49.4439 34.9388 49.6276 34.4682 49.7673C34.0039 49.929 33.5222 50.0373 33.0485 50.166L32.3253 50.3135L31.9629 50.3857L31.5974 50.4407C30.6247 50.5866 29.6411 50.6541 28.6575 50.6447C26.6918 50.6259 24.7324 50.3025 22.8624 49.7014C21.9274 49.4 21.016 49.028 20.1375 48.59C19.2605 48.1474 18.4149 47.6435 17.6102 47.0832C14.4005 44.8229 11.8559 41.627 10.4126 37.9713L10.3311 37.7625L10.5115 37.6323C13.2082 35.6812 16.4508 34.5557 19.7437 34.2638C23.0413 33.9718 26.4031 34.5243 29.4419 35.8177C30.9604 36.4676 32.3974 37.3011 33.734 38.268C35.0675 39.2396 36.2864 40.3603 37.4002 41.5721C39.6169 44.0098 41.3802 46.832 42.7231 49.8254C43.3992 51.3212 43.9656 52.8658 44.4331 54.4386C44.6731 55.2234 44.8723 56.0192 45.0621 56.8166C45.2378 57.6171 45.4026 58.4224 45.5265 59.2323C45.7728 60.8522 45.9642 62.4768 46.1069 64.1061C46.1885 64.9192 46.2419 65.7354 46.3077 66.5501C46.3595 67.3663 46.4223 68.1809 46.4631 68.9972C46.6466 72.2605 46.7501 75.5269 46.7831 78.795C46.8207 82.0614 46.7847 85.3294 46.6592 88.5943C46.7015 86.9619 46.7188 85.3279 46.7188 83.6954C46.7125 82.063 46.6984 80.429 46.6623 78.7965C46.5964 75.5316 46.4615 72.2683 46.2466 69.0097C46.1979 68.1951 46.1273 67.382 46.0677 66.5673C45.9924 65.7542 45.9328 64.9412 45.8434 64.1297C45.6849 62.5066 45.4779 60.8867 45.2175 59.281C44.9476 57.6768 44.5711 56.0914 44.0973 54.5359C43.6251 52.9804 43.0557 51.4547 42.378 49.9776C41.0335 47.0235 39.2734 44.2468 37.0787 41.8625C35.9758 40.6774 34.7741 39.5833 33.4611 38.64C32.1464 37.6998 30.7377 36.8945 29.2505 36.2682C26.2745 35.0235 23.0005 34.5071 19.7923 34.81C16.592 35.1145 13.5486 35.9865 10.9492 37.8779C12.3563 41.4206 14.8366 44.4038 17.9537 46.5903C18.7365 47.1334 19.557 47.62 20.4073 48.0469C21.2591 48.4692 22.1439 48.8286 23.0507 49.119C24.8642 49.6982 26.7624 50.0074 28.6637 50.0216C29.6144 50.0294 30.5651 49.9619 31.5032 49.8191L31.8546 49.7657L32.2045 49.6951L32.9026 49.5507C33.3607 49.4251 33.825 49.3215 34.2737 49.163C34.7286 49.0264 35.1695 48.8475 35.6134 48.6779C35.833 48.5885 36.048 48.4864 36.266 48.3907C36.3743 48.342 36.4841 48.2965 36.5908 48.2431L36.9092 48.0815C37.1194 47.9716 37.3375 47.8727 37.543 47.7518L38.1642 47.4002C38.3698 47.2794 38.569 47.1491 38.7729 47.0235C38.9769 46.9011 39.1745 46.7661 39.3706 46.6311C40.1644 46.1006 40.9221 45.5151 41.6579 44.9029C42.3968 44.2939 43.109 43.6472 43.8071 42.9864C45.2065 41.6663 46.5399 40.2693 47.9016 38.8927C49.2618 37.5145 50.6454 36.1474 52.1263 34.8791C52.8637 34.2418 53.6355 33.6406 54.4277 33.0677C55.22 32.4948 56.0561 31.9784 56.9095 31.4996C58.6242 30.5562 60.4408 29.8028 62.3155 29.244C64.1933 28.6978 66.1261 28.3352 68.0776 28.2018C71.9776 27.9412 75.9325 28.4623 79.6128 29.7871C83.2916 31.1072 86.688 33.1964 89.5369 35.8711L89.6828 36.0077L89.6075 36.1897C89.2027 37.1551 88.7541 38.1016 88.2536 39.0214C87.7422 39.935 87.1916 40.8249 86.5876 41.6804C85.9758 42.5296 85.3279 43.3521 84.6329 44.1322C83.9317 44.9076 83.199 45.6548 82.4225 46.3548C79.3179 49.1567 75.6093 51.2726 71.6325 52.5346C67.6556 53.7966 63.4137 54.2173 59.2721 53.7307C55.1305 53.2551 51.1019 51.8471 47.5643 49.6511L47.3933 49.546L47.5455 49.4172C49.29 47.9324 50.8854 46.2764 52.5091 44.6455C54.1344 43.0209 55.7941 41.4057 57.6735 40.0605C59.5435 38.7075 61.6394 37.6746 63.8372 36.9871C64.9369 36.6465 66.0618 36.3828 67.1991 36.2149C68.3349 36.0485 69.4864 35.9669 70.6347 35.97Z" stroke="white" stroke-width="1.05682" mask="url(#path-2-outside-1_300_1012)"/>
<defs>
<linearGradient id="paint0_linear_300_1012" x1="5.78641e-07" y1="18.75" x2="103.376" y2="26.0587" gradientUnits="userSpaceOnUse">
<stop stop-color="#30C917"/>
<stop offset="1" stop-color="#279A13"/>
</linearGradient>
</defs>
</svg>
