<svg width="62" height="62" viewBox="0 0 62 62" fill="none" xmlns="http://www.w3.org/2000/svg">
<circle cx="31" cy="31" r="31" fill="white"/>
<circle cx="31" cy="31" r="31" fill="url(#paint0_linear_300_866)"/>
<mask id="path-3-outside-1_300_866" maskUnits="userSpaceOnUse" x="5.40527" y="16.4453" width="51" height="39" fill="black">
<rect fill="white" x="5.40527" y="16.4453" width="51" height="39"/>
<path d="M43.7936 22.3019C43.0806 22.3088 42.3696 22.3681 41.6664 22.481C40.9632 22.5939 40.2706 22.7662 39.5947 22.9851C38.2437 23.4279 36.9569 24.0731 35.815 24.9179C34.6663 25.7568 33.6518 26.763 32.6549 27.779C31.6599 28.798 30.6668 29.7799 29.5843 30.719C31.7698 32.0416 34.2383 32.8036 36.775 33.079C39.3097 33.3622 41.9027 33.0888 44.3256 32.3034C46.7494 31.519 49.003 30.214 50.8821 28.4982C52.7613 26.7835 54.3097 24.8556 55.2688 22.5014C53.5345 20.8801 51.4696 19.6159 49.2355 18.8189C47.0013 18.0189 44.5989 17.7075 42.2364 17.87C41.0536 17.9528 39.8835 18.1756 38.7465 18.5085C37.6115 18.8491 36.5124 19.3074 35.4755 19.8807C34.961 20.1716 34.4582 20.4831 33.9777 20.8315C33.4982 21.1799 33.0303 21.5448 32.581 21.9351C31.6793 22.7107 30.8312 23.5525 29.9918 24.406C29.1514 25.2585 28.3169 26.1237 27.4396 26.9509C27.0009 27.3645 26.5525 27.7693 26.0857 28.1537C25.6198 28.5401 25.1393 28.9099 24.6335 29.2466C24.508 29.3322 24.3826 29.4179 24.2522 29.4957C24.1229 29.5755 23.9955 29.6583 23.8642 29.7342L23.4664 29.958C23.335 30.0349 23.196 30.0972 23.0608 30.1672L22.8565 30.2704C22.7884 30.3035 22.7174 30.3327 22.6484 30.3638C22.5083 30.4242 22.3712 30.4894 22.2301 30.5468C21.9451 30.6558 21.6621 30.7697 21.3703 30.8563C21.0824 30.9565 20.7838 31.0237 20.4901 31.1035L20.0417 31.1949L19.817 31.2397L19.5904 31.2738C18.9873 31.3643 18.3775 31.4061 17.7677 31.4003C16.5489 31.3886 15.3341 31.1881 14.1747 30.8154C13.595 30.6285 13.0299 30.3979 12.4852 30.1264C11.9415 29.8519 11.4173 29.5395 10.9183 29.1921C8.9283 27.7907 7.35068 25.8093 6.45585 23.5428L6.40527 23.4133L6.51713 23.3325C8.1891 22.1229 10.1995 21.4251 12.2411 21.2441C14.2856 21.0631 16.37 21.4056 18.254 22.2075C19.1955 22.6104 20.0864 23.1272 20.9151 23.7267C21.7419 24.3291 22.4976 25.024 23.1882 25.7753C24.5625 27.2866 25.6558 29.0364 26.4883 30.8923C26.9075 31.8197 27.2587 32.7773 27.5485 33.7525C27.6973 34.2391 27.8209 34.7325 27.9385 35.2269C28.0475 35.7232 28.1496 36.2224 28.2264 36.7246C28.3792 37.7289 28.4978 38.7362 28.5863 39.7463C28.6369 40.2504 28.67 40.7565 28.7108 41.2616C28.7429 41.7676 28.7818 42.2727 28.8071 42.7788C28.9209 44.802 28.9851 46.8272 29.0055 48.8534C29.0289 50.8786 29.0065 52.9048 28.9287 54.929C28.955 53.9169 28.9657 52.9038 28.9657 51.8917C28.9618 50.8796 28.953 49.8665 28.9306 48.8544C28.8898 46.8302 28.8061 44.8069 28.6729 42.7866C28.6427 42.2815 28.599 41.7774 28.562 41.2723C28.5153 40.7682 28.4784 40.2641 28.4229 39.7609C28.3247 38.7547 28.1963 37.7503 28.0348 36.7548C27.8675 35.7602 27.6341 34.7772 27.3404 33.8128C27.0476 32.8484 26.6945 31.9024 26.2744 30.9867C25.4408 29.1551 24.3495 27.4336 22.9888 25.9553C22.305 25.2205 21.56 24.5422 20.7459 23.9573C19.9308 23.3744 19.0574 22.8752 18.1353 22.4868C16.2902 21.7151 14.2603 21.3949 12.2713 21.5828C10.2871 21.7716 8.40016 22.3122 6.78849 23.4849C7.66095 25.6813 9.1987 27.5309 11.1313 28.8865C11.6167 29.2233 12.1254 29.5249 12.6525 29.7897C13.1807 30.0514 13.7293 30.2743 14.2914 30.4543C15.4158 30.8134 16.5927 31.0052 17.7715 31.0139C18.361 31.0188 18.9504 30.9769 19.532 30.8884L19.7499 30.8553L19.9668 30.8115L20.3996 30.722C20.6836 30.6441 20.9715 30.5799 21.2497 30.4816C21.5318 30.3969 21.8051 30.286 22.0803 30.1809C22.2165 30.1254 22.3498 30.0621 22.485 30.0028C22.5521 29.9726 22.6202 29.9444 22.6863 29.9113L22.8837 29.8111C23.0141 29.7429 23.1493 29.6816 23.2767 29.6067L23.6619 29.3887C23.7893 29.3138 23.9128 29.233 24.0392 29.1551C24.1657 29.0792 24.2882 28.9955 24.4098 28.9118C24.902 28.5829 25.3718 28.2199 25.8279 27.8404C26.286 27.4628 26.7276 27.0618 27.1604 26.6521C28.028 25.8336 28.8548 24.9675 29.699 24.114C30.5423 23.2596 31.4002 22.4119 32.3183 21.6256C32.7755 21.2305 33.254 20.8577 33.7452 20.5025C34.2364 20.1473 34.7548 19.8271 35.2839 19.5303C36.347 18.9454 37.4733 18.4783 38.6356 18.1318C39.7999 17.7932 40.9982 17.5684 42.2081 17.4856C44.6261 17.3241 47.0782 17.6472 49.36 18.4686C51.6408 19.287 53.7466 20.5823 55.5129 22.2406L55.6033 22.3253L55.5567 22.4382C55.3057 23.0367 55.0275 23.6235 54.7173 24.1938C54.4002 24.7602 54.0588 25.312 53.6843 25.8424C53.305 26.3689 52.9033 26.8788 52.4724 27.3625C52.0377 27.8433 51.5834 28.3065 51.102 28.7406C49.1771 30.4777 46.8778 31.7895 44.4121 32.572C41.9465 33.3544 39.3165 33.6152 36.7487 33.3136C34.181 33.0187 31.6832 32.1457 29.4899 30.7842L29.3839 30.719L29.4782 30.6392C30.5598 29.7186 31.549 28.6919 32.5557 27.6808C33.5633 26.6735 34.5924 25.6721 35.7576 24.8381C36.917 23.9992 38.2164 23.3588 39.5791 22.9326C40.2609 22.7214 40.9583 22.5579 41.6635 22.4538C42.3677 22.3506 43.0816 22.3 43.7936 22.3019Z"/>
</mask>
<path d="M43.7936 22.3019C43.0806 22.3088 42.3696 22.3681 41.6664 22.481C40.9632 22.5939 40.2706 22.7662 39.5947 22.9851C38.2437 23.4279 36.9569 24.0731 35.815 24.9179C34.6663 25.7568 33.6518 26.763 32.6549 27.779C31.6599 28.798 30.6668 29.7799 29.5843 30.719C31.7698 32.0416 34.2383 32.8036 36.775 33.079C39.3097 33.3622 41.9027 33.0888 44.3256 32.3034C46.7494 31.519 49.003 30.214 50.8821 28.4982C52.7613 26.7835 54.3097 24.8556 55.2688 22.5014C53.5345 20.8801 51.4696 19.6159 49.2355 18.8189C47.0013 18.0189 44.5989 17.7075 42.2364 17.87C41.0536 17.9528 39.8835 18.1756 38.7465 18.5085C37.6115 18.8491 36.5124 19.3074 35.4755 19.8807C34.961 20.1716 34.4582 20.4831 33.9777 20.8315C33.4982 21.1799 33.0303 21.5448 32.581 21.9351C31.6793 22.7107 30.8312 23.5525 29.9918 24.406C29.1514 25.2585 28.3169 26.1237 27.4396 26.9509C27.0009 27.3645 26.5525 27.7693 26.0857 28.1537C25.6198 28.5401 25.1393 28.9099 24.6335 29.2466C24.508 29.3322 24.3826 29.4179 24.2522 29.4957C24.1229 29.5755 23.9955 29.6583 23.8642 29.7342L23.4664 29.958C23.335 30.0349 23.196 30.0972 23.0608 30.1672L22.8565 30.2704C22.7884 30.3035 22.7174 30.3327 22.6484 30.3638C22.5083 30.4242 22.3712 30.4894 22.2301 30.5468C21.9451 30.6558 21.6621 30.7697 21.3703 30.8563C21.0824 30.9565 20.7838 31.0237 20.4901 31.1035L20.0417 31.1949L19.817 31.2397L19.5904 31.2738C18.9873 31.3643 18.3775 31.4061 17.7677 31.4003C16.5489 31.3886 15.3341 31.1881 14.1747 30.8154C13.595 30.6285 13.0299 30.3979 12.4852 30.1264C11.9415 29.8519 11.4173 29.5395 10.9183 29.1921C8.9283 27.7907 7.35068 25.8093 6.45585 23.5428L6.40527 23.4133L6.51713 23.3325C8.1891 22.1229 10.1995 21.4251 12.2411 21.2441C14.2856 21.0631 16.37 21.4056 18.254 22.2075C19.1955 22.6104 20.0864 23.1272 20.9151 23.7267C21.7419 24.3291 22.4976 25.024 23.1882 25.7753C24.5625 27.2866 25.6558 29.0364 26.4883 30.8923C26.9075 31.8197 27.2587 32.7773 27.5485 33.7525C27.6973 34.2391 27.8209 34.7325 27.9385 35.2269C28.0475 35.7232 28.1496 36.2224 28.2264 36.7246C28.3792 37.7289 28.4978 38.7362 28.5863 39.7463C28.6369 40.2504 28.67 40.7565 28.7108 41.2616C28.7429 41.7676 28.7818 42.2727 28.8071 42.7788C28.9209 44.802 28.9851 46.8272 29.0055 48.8534C29.0289 50.8786 29.0065 52.9048 28.9287 54.929C28.955 53.9169 28.9657 52.9038 28.9657 51.8917C28.9618 50.8796 28.953 49.8665 28.9306 48.8544C28.8898 46.8302 28.8061 44.8069 28.6729 42.7866C28.6427 42.2815 28.599 41.7774 28.562 41.2723C28.5153 40.7682 28.4784 40.2641 28.4229 39.7609C28.3247 38.7547 28.1963 37.7503 28.0348 36.7548C27.8675 35.7602 27.6341 34.7772 27.3404 33.8128C27.0476 32.8484 26.6945 31.9024 26.2744 30.9867C25.4408 29.1551 24.3495 27.4336 22.9888 25.9553C22.305 25.2205 21.56 24.5422 20.7459 23.9573C19.9308 23.3744 19.0574 22.8752 18.1353 22.4868C16.2902 21.7151 14.2603 21.3949 12.2713 21.5828C10.2871 21.7716 8.40016 22.3122 6.78849 23.4849C7.66095 25.6813 9.1987 27.5309 11.1313 28.8865C11.6167 29.2233 12.1254 29.5249 12.6525 29.7897C13.1807 30.0514 13.7293 30.2743 14.2914 30.4543C15.4158 30.8134 16.5927 31.0052 17.7715 31.0139C18.361 31.0188 18.9504 30.9769 19.532 30.8884L19.7499 30.8553L19.9668 30.8115L20.3996 30.722C20.6836 30.6441 20.9715 30.5799 21.2497 30.4816C21.5318 30.3969 21.8051 30.286 22.0803 30.1809C22.2165 30.1254 22.3498 30.0621 22.485 30.0028C22.5521 29.9726 22.6202 29.9444 22.6863 29.9113L22.8837 29.8111C23.0141 29.7429 23.1493 29.6816 23.2767 29.6067L23.6619 29.3887C23.7893 29.3138 23.9128 29.233 24.0392 29.1551C24.1657 29.0792 24.2882 28.9955 24.4098 28.9118C24.902 28.5829 25.3718 28.2199 25.8279 27.8404C26.286 27.4628 26.7276 27.0618 27.1604 26.6521C28.028 25.8336 28.8548 24.9675 29.699 24.114C30.5423 23.2596 31.4002 22.4119 32.3183 21.6256C32.7755 21.2305 33.254 20.8577 33.7452 20.5025C34.2364 20.1473 34.7548 19.8271 35.2839 19.5303C36.347 18.9454 37.4733 18.4783 38.6356 18.1318C39.7999 17.7932 40.9982 17.5684 42.2081 17.4856C44.6261 17.3241 47.0782 17.6472 49.36 18.4686C51.6408 19.287 53.7466 20.5823 55.5129 22.2406L55.6033 22.3253L55.5567 22.4382C55.3057 23.0367 55.0275 23.6235 54.7173 24.1938C54.4002 24.7602 54.0588 25.312 53.6843 25.8424C53.305 26.3689 52.9033 26.8788 52.4724 27.3625C52.0377 27.8433 51.5834 28.3065 51.102 28.7406C49.1771 30.4777 46.8778 31.7895 44.4121 32.572C41.9465 33.3544 39.3165 33.6152 36.7487 33.3136C34.181 33.0187 31.6832 32.1457 29.4899 30.7842L29.3839 30.719L29.4782 30.6392C30.5598 29.7186 31.549 28.6919 32.5557 27.6808C33.5633 26.6735 34.5924 25.6721 35.7576 24.8381C36.917 23.9992 38.2164 23.3588 39.5791 22.9326C40.2609 22.7214 40.9583 22.5579 41.6635 22.4538C42.3677 22.3506 43.0816 22.3 43.7936 22.3019Z" fill="white"/>
<path d="M43.7936 22.3019C43.0806 22.3088 42.3696 22.3681 41.6664 22.481C40.9632 22.5939 40.2706 22.7662 39.5947 22.9851C38.2437 23.4279 36.9569 24.0731 35.815 24.9179C34.6663 25.7568 33.6518 26.763 32.6549 27.779C31.6599 28.798 30.6668 29.7799 29.5843 30.719C31.7698 32.0416 34.2383 32.8036 36.775 33.079C39.3097 33.3622 41.9027 33.0888 44.3256 32.3034C46.7494 31.519 49.003 30.214 50.8821 28.4982C52.7613 26.7835 54.3097 24.8556 55.2688 22.5014C53.5345 20.8801 51.4696 19.6159 49.2355 18.8189C47.0013 18.0189 44.5989 17.7075 42.2364 17.87C41.0536 17.9528 39.8835 18.1756 38.7465 18.5085C37.6115 18.8491 36.5124 19.3074 35.4755 19.8807C34.961 20.1716 34.4582 20.4831 33.9777 20.8315C33.4982 21.1799 33.0303 21.5448 32.581 21.9351C31.6793 22.7107 30.8312 23.5525 29.9918 24.406C29.1514 25.2585 28.3169 26.1237 27.4396 26.9509C27.0009 27.3645 26.5525 27.7693 26.0857 28.1537C25.6198 28.5401 25.1393 28.9099 24.6335 29.2466C24.508 29.3322 24.3826 29.4179 24.2522 29.4957C24.1229 29.5755 23.9955 29.6583 23.8642 29.7342L23.4664 29.958C23.335 30.0349 23.196 30.0972 23.0608 30.1672L22.8565 30.2704C22.7884 30.3035 22.7174 30.3327 22.6484 30.3638C22.5083 30.4242 22.3712 30.4894 22.2301 30.5468C21.9451 30.6558 21.6621 30.7697 21.3703 30.8563C21.0824 30.9565 20.7838 31.0237 20.4901 31.1035L20.0417 31.1949L19.817 31.2397L19.5904 31.2738C18.9873 31.3643 18.3775 31.4061 17.7677 31.4003C16.5489 31.3886 15.3341 31.1881 14.1747 30.8154C13.595 30.6285 13.0299 30.3979 12.4852 30.1264C11.9415 29.8519 11.4173 29.5395 10.9183 29.1921C8.9283 27.7907 7.35068 25.8093 6.45585 23.5428L6.40527 23.4133L6.51713 23.3325C8.1891 22.1229 10.1995 21.4251 12.2411 21.2441C14.2856 21.0631 16.37 21.4056 18.254 22.2075C19.1955 22.6104 20.0864 23.1272 20.9151 23.7267C21.7419 24.3291 22.4976 25.024 23.1882 25.7753C24.5625 27.2866 25.6558 29.0364 26.4883 30.8923C26.9075 31.8197 27.2587 32.7773 27.5485 33.7525C27.6973 34.2391 27.8209 34.7325 27.9385 35.2269C28.0475 35.7232 28.1496 36.2224 28.2264 36.7246C28.3792 37.7289 28.4978 38.7362 28.5863 39.7463C28.6369 40.2504 28.67 40.7565 28.7108 41.2616C28.7429 41.7676 28.7818 42.2727 28.8071 42.7788C28.9209 44.802 28.9851 46.8272 29.0055 48.8534C29.0289 50.8786 29.0065 52.9048 28.9287 54.929C28.955 53.9169 28.9657 52.9038 28.9657 51.8917C28.9618 50.8796 28.953 49.8665 28.9306 48.8544C28.8898 46.8302 28.8061 44.8069 28.6729 42.7866C28.6427 42.2815 28.599 41.7774 28.562 41.2723C28.5153 40.7682 28.4784 40.2641 28.4229 39.7609C28.3247 38.7547 28.1963 37.7503 28.0348 36.7548C27.8675 35.7602 27.6341 34.7772 27.3404 33.8128C27.0476 32.8484 26.6945 31.9024 26.2744 30.9867C25.4408 29.1551 24.3495 27.4336 22.9888 25.9553C22.305 25.2205 21.56 24.5422 20.7459 23.9573C19.9308 23.3744 19.0574 22.8752 18.1353 22.4868C16.2902 21.7151 14.2603 21.3949 12.2713 21.5828C10.2871 21.7716 8.40016 22.3122 6.78849 23.4849C7.66095 25.6813 9.1987 27.5309 11.1313 28.8865C11.6167 29.2233 12.1254 29.5249 12.6525 29.7897C13.1807 30.0514 13.7293 30.2743 14.2914 30.4543C15.4158 30.8134 16.5927 31.0052 17.7715 31.0139C18.361 31.0188 18.9504 30.9769 19.532 30.8884L19.7499 30.8553L19.9668 30.8115L20.3996 30.722C20.6836 30.6441 20.9715 30.5799 21.2497 30.4816C21.5318 30.3969 21.8051 30.286 22.0803 30.1809C22.2165 30.1254 22.3498 30.0621 22.485 30.0028C22.5521 29.9726 22.6202 29.9444 22.6863 29.9113L22.8837 29.8111C23.0141 29.7429 23.1493 29.6816 23.2767 29.6067L23.6619 29.3887C23.7893 29.3138 23.9128 29.233 24.0392 29.1551C24.1657 29.0792 24.2882 28.9955 24.4098 28.9118C24.902 28.5829 25.3718 28.2199 25.8279 27.8404C26.286 27.4628 26.7276 27.0618 27.1604 26.6521C28.028 25.8336 28.8548 24.9675 29.699 24.114C30.5423 23.2596 31.4002 22.4119 32.3183 21.6256C32.7755 21.2305 33.254 20.8577 33.7452 20.5025C34.2364 20.1473 34.7548 19.8271 35.2839 19.5303C36.347 18.9454 37.4733 18.4783 38.6356 18.1318C39.7999 17.7932 40.9982 17.5684 42.2081 17.4856C44.6261 17.3241 47.0782 17.6472 49.36 18.4686C51.6408 19.287 53.7466 20.5823 55.5129 22.2406L55.6033 22.3253L55.5567 22.4382C55.3057 23.0367 55.0275 23.6235 54.7173 24.1938C54.4002 24.7602 54.0588 25.312 53.6843 25.8424C53.305 26.3689 52.9033 26.8788 52.4724 27.3625C52.0377 27.8433 51.5834 28.3065 51.102 28.7406C49.1771 30.4777 46.8778 31.7895 44.4121 32.572C41.9465 33.3544 39.3165 33.6152 36.7487 33.3136C34.181 33.0187 31.6832 32.1457 29.4899 30.7842L29.3839 30.719L29.4782 30.6392C30.5598 29.7186 31.549 28.6919 32.5557 27.6808C33.5633 26.6735 34.5924 25.6721 35.7576 24.8381C36.917 23.9992 38.2164 23.3588 39.5791 22.9326C40.2609 22.7214 40.9583 22.5579 41.6635 22.4538C42.3677 22.3506 43.0816 22.3 43.7936 22.3019Z" stroke="white" stroke-width="1.05682" mask="url(#path-3-outside-1_300_866)"/>
<defs>
<linearGradient id="paint0_linear_300_866" x1="3.58758e-07" y1="11.625" x2="64.093" y2="16.1564" gradientUnits="userSpaceOnUse">
<stop stop-color="#30C917"/>
<stop offset="1" stop-color="#279A13"/>
</linearGradient>
</defs>
</svg>
