<svg width="552" height="588" viewBox="0 0 552 588" fill="none" xmlns="http://www.w3.org/2000/svg">
<rect width="552" height="588" fill="white"/>
<path d="M62.4789 521V508.4H64.2789V519.434H71.1009V521H62.4789ZM72.9144 521V511.46H74.6424V521H72.9144ZM73.7784 509.624C73.4424 509.624 73.1604 509.516 72.9324 509.3C72.7164 509.084 72.6084 508.82 72.6084 508.508C72.6084 508.184 72.7164 507.914 72.9324 507.698C73.1604 507.482 73.4424 507.374 73.7784 507.374C74.1144 507.374 74.3904 507.482 74.6064 507.698C74.8344 507.902 74.9484 508.16 74.9484 508.472C74.9484 508.796 74.8404 509.072 74.6244 509.3C74.4084 509.516 74.1264 509.624 73.7784 509.624ZM81.8837 521.108C80.9597 521.108 80.1317 520.904 79.3997 520.496C78.6797 520.088 78.1097 519.518 77.6897 518.786C77.2697 518.054 77.0597 517.202 77.0597 516.23C77.0597 515.258 77.2697 514.412 77.6897 513.692C78.1097 512.96 78.6797 512.39 79.3997 511.982C80.1317 511.574 80.9597 511.37 81.8837 511.37C82.7117 511.37 83.4497 511.55 84.0977 511.91C84.7457 512.27 85.2557 512.81 85.6277 513.53C86.0117 514.25 86.2037 515.15 86.2037 516.23C86.2037 517.31 86.0057 518.21 85.6097 518.93C85.2257 519.65 84.7097 520.196 84.0617 520.568C83.4137 520.928 82.6877 521.108 81.8837 521.108ZM82.0277 519.596C82.6277 519.596 83.1677 519.458 83.6477 519.182C84.1397 518.906 84.5237 518.516 84.7997 518.012C85.0877 517.496 85.2317 516.902 85.2317 516.23C85.2317 515.546 85.0877 514.958 84.7997 514.466C84.5237 513.962 84.1397 513.572 83.6477 513.296C83.1677 513.02 82.6277 512.882 82.0277 512.882C81.4157 512.882 80.8697 513.02 80.3897 513.296C79.9097 513.572 79.5257 513.962 79.2377 514.466C78.9497 514.958 78.8057 515.546 78.8057 516.23C78.8057 516.902 78.9497 517.496 79.2377 518.012C79.5257 518.516 79.9097 518.906 80.3897 519.182C80.8697 519.458 81.4157 519.596 82.0277 519.596ZM85.2137 524.492V518.462L85.3937 516.248L85.2857 514.034V511.46H86.9417V524.492H85.2137ZM94.2252 521.108C93.4092 521.108 92.6892 520.958 92.0652 520.658C91.4532 520.358 90.9732 519.902 90.6252 519.29C90.2892 518.666 90.1212 517.886 90.1212 516.95V511.46H91.8492V516.752C91.8492 517.688 92.0712 518.39 92.5152 518.858C92.9712 519.326 93.6072 519.56 94.4232 519.56C95.0232 519.56 95.5452 519.44 95.9892 519.2C96.4332 518.948 96.7752 518.588 97.0152 518.12C97.2552 517.64 97.3752 517.064 97.3752 516.392V511.46H99.1032V521H97.4652V518.426L97.7352 519.11C97.4232 519.746 96.9552 520.238 96.3312 520.586C95.7072 520.934 95.0052 521.108 94.2252 521.108ZM102.393 521V511.46H104.121V521H102.393ZM103.257 509.624C102.921 509.624 102.639 509.516 102.411 509.3C102.195 509.084 102.087 508.82 102.087 508.508C102.087 508.184 102.195 507.914 102.411 507.698C102.639 507.482 102.921 507.374 103.257 507.374C103.593 507.374 103.869 507.482 104.085 507.698C104.313 507.902 104.427 508.16 104.427 508.472C104.427 508.796 104.319 509.072 104.103 509.3C103.887 509.516 103.605 509.624 103.257 509.624ZM111.362 521.108C110.438 521.108 109.61 520.904 108.878 520.496C108.158 520.088 107.588 519.518 107.168 518.786C106.748 518.054 106.538 517.202 106.538 516.23C106.538 515.258 106.748 514.412 107.168 513.692C107.588 512.96 108.158 512.39 108.878 511.982C109.61 511.574 110.438 511.37 111.362 511.37C112.166 511.37 112.892 511.55 113.54 511.91C114.188 512.27 114.704 512.81 115.088 513.53C115.484 514.25 115.682 515.15 115.682 516.23C115.682 517.31 115.49 518.21 115.106 518.93C114.734 519.65 114.224 520.196 113.576 520.568C112.928 520.928 112.19 521.108 111.362 521.108ZM111.506 519.596C112.106 519.596 112.646 519.458 113.126 519.182C113.618 518.906 114.002 518.516 114.278 518.012C114.566 517.496 114.71 516.902 114.71 516.23C114.71 515.546 114.566 514.958 114.278 514.466C114.002 513.962 113.618 513.572 113.126 513.296C112.646 513.02 112.106 512.882 111.506 512.882C110.894 512.882 110.348 513.02 109.868 513.296C109.388 513.572 109.004 513.962 108.716 514.466C108.428 514.958 108.284 515.546 108.284 516.23C108.284 516.902 108.428 517.496 108.716 518.012C109.004 518.516 109.388 518.906 109.868 519.182C110.348 519.458 110.894 519.596 111.506 519.596ZM114.764 521V518.426L114.872 516.212L114.692 513.998V507.644H116.42V521H114.764ZM119.69 521V511.46H121.418V521H119.69ZM120.554 509.624C120.218 509.624 119.936 509.516 119.708 509.3C119.492 509.084 119.384 508.82 119.384 508.508C119.384 508.184 119.492 507.914 119.708 507.698C119.936 507.482 120.218 507.374 120.554 507.374C120.89 507.374 121.166 507.482 121.382 507.698C121.61 507.902 121.724 508.16 121.724 508.472C121.724 508.796 121.616 509.072 121.4 509.3C121.184 509.516 120.902 509.624 120.554 509.624ZM127.993 521.108C127.033 521.108 126.289 520.85 125.761 520.334C125.233 519.818 124.969 519.08 124.969 518.12V509.372H126.697V518.048C126.697 518.564 126.823 518.96 127.075 519.236C127.339 519.512 127.711 519.65 128.191 519.65C128.731 519.65 129.181 519.5 129.541 519.2L130.081 520.442C129.817 520.67 129.499 520.838 129.127 520.946C128.767 521.054 128.389 521.108 127.993 521.108ZM123.349 512.882V511.46H129.433V512.882H123.349ZM132.408 524.6C131.952 524.6 131.508 524.522 131.076 524.366C130.644 524.222 130.272 524.006 129.96 523.718L130.698 522.422C130.938 522.65 131.202 522.824 131.49 522.944C131.778 523.064 132.084 523.124 132.408 523.124C132.828 523.124 133.176 523.016 133.452 522.8C133.728 522.584 133.986 522.2 134.226 521.648L134.82 520.334L135 520.118L138.744 511.46H140.436L135.81 521.954C135.534 522.626 135.222 523.154 134.874 523.538C134.538 523.922 134.166 524.192 133.758 524.348C133.35 524.516 132.9 524.6 132.408 524.6ZM134.676 521.306L130.32 511.46H132.12L135.828 519.956L134.676 521.306ZM60.4925 543V530.4H65.4065C66.5105 530.4 67.4525 530.574 68.2325 530.922C69.0125 531.27 69.6125 531.774 70.0325 532.434C70.4525 533.094 70.6625 533.88 70.6625 534.792C70.6625 535.704 70.4525 536.49 70.0325 537.15C69.6125 537.798 69.0125 538.302 68.2325 538.662C67.4525 539.01 66.5105 539.184 65.4065 539.184H61.4825L62.2925 538.338V543H60.4925ZM62.2925 538.518L61.4825 537.618H65.3525C66.5045 537.618 67.3745 537.372 67.9625 536.88C68.5625 536.388 68.8625 535.692 68.8625 534.792C68.8625 533.892 68.5625 533.196 67.9625 532.704C67.3745 532.212 66.5045 531.966 65.3525 531.966H61.4825L62.2925 531.066V538.518ZM72.8968 543V533.46H74.5528V536.052L74.3908 535.404C74.6548 534.744 75.0988 534.24 75.7228 533.892C76.3468 533.544 77.1148 533.37 78.0268 533.37V535.044C77.9548 535.032 77.8828 535.026 77.8108 535.026C77.7508 535.026 77.6908 535.026 77.6308 535.026C76.7068 535.026 75.9748 535.302 75.4348 535.854C74.8948 536.406 74.6248 537.204 74.6248 538.248V543H72.8968ZM84.1547 543.108C83.1947 543.108 82.3427 542.898 81.5987 542.478C80.8547 542.058 80.2667 541.482 79.8347 540.75C79.4027 540.006 79.1867 539.166 79.1867 538.23C79.1867 537.282 79.4027 536.442 79.8347 535.71C80.2667 534.978 80.8547 534.408 81.5987 534C82.3427 533.58 83.1947 533.37 84.1547 533.37C85.1027 533.37 85.9487 533.58 86.6927 534C87.4487 534.408 88.0367 534.978 88.4567 535.71C88.8887 536.43 89.1047 537.27 89.1047 538.23C89.1047 539.178 88.8887 540.018 88.4567 540.75C88.0367 541.482 87.4487 542.058 86.6927 542.478C85.9487 542.898 85.1027 543.108 84.1547 543.108ZM84.1547 541.596C84.7667 541.596 85.3127 541.458 85.7927 541.182C86.2847 540.906 86.6687 540.516 86.9447 540.012C87.2207 539.496 87.3587 538.902 87.3587 538.23C87.3587 537.546 87.2207 536.958 86.9447 536.466C86.6687 535.962 86.2847 535.572 85.7927 535.296C85.3127 535.02 84.7667 534.882 84.1547 534.882C83.5427 534.882 82.9967 535.02 82.5167 535.296C82.0367 535.572 81.6527 535.962 81.3647 536.466C81.0767 536.958 80.9327 537.546 80.9327 538.23C80.9327 538.902 81.0767 539.496 81.3647 540.012C81.6527 540.516 82.0367 540.906 82.5167 541.182C82.9967 541.458 83.5427 541.596 84.1547 541.596ZM93.7328 543L89.5568 533.46H91.3568L95.0648 542.1H94.2008L97.9808 533.46H99.6728L95.4968 543H93.7328ZM101.285 543V533.46H103.013V543H101.285ZM102.149 531.624C101.813 531.624 101.531 531.516 101.303 531.3C101.087 531.084 100.979 530.82 100.979 530.508C100.979 530.184 101.087 529.914 101.303 529.698C101.531 529.482 101.813 529.374 102.149 529.374C102.485 529.374 102.761 529.482 102.977 529.698C103.205 529.902 103.319 530.16 103.319 530.472C103.319 530.796 103.211 531.072 102.995 531.3C102.779 531.516 102.497 531.624 102.149 531.624ZM109.049 543.108C108.257 543.108 107.501 543 106.781 542.784C106.073 542.568 105.515 542.304 105.107 541.992L105.827 540.624C106.235 540.9 106.739 541.134 107.339 541.326C107.939 541.518 108.551 541.614 109.175 541.614C109.979 541.614 110.555 541.5 110.903 541.272C111.263 541.044 111.443 540.726 111.443 540.318C111.443 540.018 111.335 539.784 111.119 539.616C110.903 539.448 110.615 539.322 110.255 539.238C109.907 539.154 109.517 539.082 109.085 539.022C108.653 538.95 108.221 538.866 107.789 538.77C107.357 538.662 106.961 538.518 106.601 538.338C106.241 538.146 105.953 537.888 105.737 537.564C105.521 537.228 105.413 536.784 105.413 536.232C105.413 535.656 105.575 535.152 105.899 534.72C106.223 534.288 106.679 533.958 107.267 533.73C107.867 533.49 108.575 533.37 109.391 533.37C110.015 533.37 110.645 533.448 111.281 533.604C111.929 533.748 112.457 533.958 112.865 534.234L112.127 535.602C111.695 535.314 111.245 535.116 110.777 535.008C110.309 534.9 109.841 534.846 109.373 534.846C108.617 534.846 108.053 534.972 107.681 535.224C107.309 535.464 107.123 535.776 107.123 536.16C107.123 536.484 107.231 536.736 107.447 536.916C107.675 537.084 107.963 537.216 108.311 537.312C108.671 537.408 109.067 537.492 109.499 537.564C109.931 537.624 110.363 537.708 110.795 537.816C111.227 537.912 111.617 538.05 111.965 538.23C112.325 538.41 112.613 538.662 112.829 538.986C113.057 539.31 113.171 539.742 113.171 540.282C113.171 540.858 113.003 541.356 112.667 541.776C112.331 542.196 111.857 542.526 111.245 542.766C110.633 542.994 109.901 543.108 109.049 543.108ZM115.33 543V533.46H117.058V543H115.33ZM116.194 531.624C115.858 531.624 115.576 531.516 115.348 531.3C115.132 531.084 115.024 530.82 115.024 530.508C115.024 530.184 115.132 529.914 115.348 529.698C115.576 529.482 115.858 529.374 116.194 529.374C116.53 529.374 116.806 529.482 117.022 529.698C117.25 529.902 117.364 530.16 117.364 530.472C117.364 530.796 117.256 531.072 117.04 531.3C116.824 531.516 116.542 531.624 116.194 531.624ZM124.444 543.108C123.484 543.108 122.632 542.898 121.888 542.478C121.144 542.058 120.556 541.482 120.124 540.75C119.692 540.006 119.476 539.166 119.476 538.23C119.476 537.282 119.692 536.442 120.124 535.71C120.556 534.978 121.144 534.408 121.888 534C122.632 533.58 123.484 533.37 124.444 533.37C125.392 533.37 126.238 533.58 126.982 534C127.738 534.408 128.326 534.978 128.746 535.71C129.178 536.43 129.394 537.27 129.394 538.23C129.394 539.178 129.178 540.018 128.746 540.75C128.326 541.482 127.738 542.058 126.982 542.478C126.238 542.898 125.392 543.108 124.444 543.108ZM124.444 541.596C125.056 541.596 125.602 541.458 126.082 541.182C126.574 540.906 126.958 540.516 127.234 540.012C127.51 539.496 127.648 538.902 127.648 538.23C127.648 537.546 127.51 536.958 127.234 536.466C126.958 535.962 126.574 535.572 126.082 535.296C125.602 535.02 125.056 534.882 124.444 534.882C123.832 534.882 123.286 535.02 122.806 535.296C122.326 535.572 121.942 535.962 121.654 536.466C121.366 536.958 121.222 537.546 121.222 538.23C121.222 538.902 121.366 539.496 121.654 540.012C121.942 540.516 122.326 540.906 122.806 541.182C123.286 541.458 123.832 541.596 124.444 541.596ZM136.878 533.37C137.658 533.37 138.342 533.52 138.93 533.82C139.53 534.12 139.998 534.576 140.334 535.188C140.67 535.8 140.838 536.574 140.838 537.51V543H139.11V537.708C139.11 536.784 138.882 536.088 138.426 535.62C137.982 535.152 137.352 534.918 136.536 534.918C135.924 534.918 135.39 535.038 134.934 535.278C134.478 535.518 134.124 535.872 133.872 536.34C133.632 536.808 133.512 537.39 133.512 538.086V543H131.784V533.46H133.44V536.034L133.17 535.35C133.482 534.726 133.962 534.24 134.61 533.892C135.258 533.544 136.014 533.37 136.878 533.37Z" fill="#7A7A7A"/>
<path d="M97.2209 230.677C97.8954 224.599 103.032 220 109.148 220H150.595C157.746 220 163.31 226.216 162.521 233.324L134.779 483.323C134.105 489.401 128.968 494 122.852 494H81.4053C74.2538 494 68.6898 487.784 69.4785 480.676L97.2209 230.677Z" fill="#F2F2F2"/>
<path d="M219.598 86.1315C220.053 79.8575 225.276 75 231.566 75H273.098C280.067 75 285.571 80.9173 285.066 87.8685L256.402 482.869C255.947 489.142 250.724 494 244.434 494H202.902C195.933 494 190.429 488.083 190.934 481.131L219.598 86.1315Z" fill="#F2F2F2"/>
<path d="M340.67 329.934C341.673 324.191 346.66 320 352.491 320H393.721C401.175 320 406.825 326.723 405.542 334.066L379.33 484.066C378.327 489.809 373.34 494 367.509 494H326.279C318.825 494 313.175 487.277 314.458 479.934L340.67 329.934Z" fill="#F2F2F2"/>
<path d="M463.423 166.925C463.979 160.739 469.164 156 475.375 156H516.872C523.924 156 529.456 162.052 528.824 169.075L500.577 483.075C500.021 489.261 494.836 494 488.625 494H447.128C440.076 494 434.544 487.948 435.176 480.925L463.423 166.925Z" fill="#F2F2F2"/>
<path d="M68 211C68 204.373 73.3726 199 80 199H122C128.627 199 134 204.373 134 211V490C134 492.209 132.209 494 130 494H72C69.7909 494 68 492.209 68 490V211Z" fill="url(#paint0_linear_300_1094)"/>
<path d="M190 55C190 48.3726 195.373 43 202 43H244C250.627 43 256 48.3726 256 55V490C256 492.209 254.209 494 252 494H194C191.791 494 190 492.209 190 490V55Z" fill="url(#paint1_linear_300_1094)"/>
<path d="M204.156 481L209.862 468.4H211.644L217.368 481H215.478L210.384 469.408H211.104L206.01 481H204.156ZM206.586 477.85L207.072 476.41H214.164L214.686 477.85H206.586ZM219.247 481V468.4H224.161C225.265 468.4 226.207 468.574 226.987 468.922C227.767 469.27 228.367 469.774 228.787 470.434C229.207 471.094 229.417 471.88 229.417 472.792C229.417 473.704 229.207 474.49 228.787 475.15C228.367 475.798 227.767 476.302 226.987 476.662C226.207 477.01 225.265 477.184 224.161 477.184H220.237L221.047 476.338V481H219.247ZM221.047 476.518L220.237 475.618H224.107C225.259 475.618 226.129 475.372 226.717 474.88C227.317 474.388 227.617 473.692 227.617 472.792C227.617 471.892 227.317 471.196 226.717 470.704C226.129 470.212 225.259 469.966 224.107 469.966H220.237L221.047 469.066V476.518ZM235.104 481V476.176L235.518 477.292L230.1 468.4H232.026L236.58 475.906H235.536L240.108 468.4H241.89L236.49 477.292L236.886 476.176V481H235.104Z" fill="white"/>
<path d="M312 318C312 311.373 317.373 306 324 306H366C372.627 306 378 311.373 378 318V490C378 492.209 376.209 494 374 494H316C313.791 494 312 492.209 312 490V318Z" fill="url(#paint2_linear_300_1094)"/>
<path d="M434 143C434 136.373 439.373 131 446 131H488C494.627 131 500 136.373 500 143V490C500 492.209 498.209 494 496 494H438C435.791 494 434 492.209 434 490V143Z" fill="url(#paint3_linear_300_1094)"/>
<path d="M82.1558 481L87.8618 468.4H89.6438L95.3678 481H93.4778L88.3838 469.408H89.1038L84.0098 481H82.1558ZM84.5858 477.85L85.0718 476.41H92.1638L92.6858 477.85H84.5858ZM97.2474 481V468.4H102.161C103.265 468.4 104.207 468.574 104.987 468.922C105.767 469.27 106.367 469.774 106.787 470.434C107.207 471.094 107.417 471.88 107.417 472.792C107.417 473.704 107.207 474.49 106.787 475.15C106.367 475.798 105.767 476.302 104.987 476.662C104.207 477.01 103.265 477.184 102.161 477.184H98.2374L99.0474 476.338V481H97.2474ZM99.0474 476.518L98.2374 475.618H102.107C103.259 475.618 104.129 475.372 104.717 474.88C105.317 474.388 105.617 473.692 105.617 472.792C105.617 471.892 105.317 471.196 104.717 470.704C104.129 470.212 103.259 469.966 102.107 469.966H98.2374L99.0474 469.066V476.518ZM113.104 481V476.176L113.518 477.292L108.1 468.4H110.026L114.58 475.906H113.536L118.108 468.4H119.89L114.49 477.292L114.886 476.176V481H113.104Z" fill="white"/>
<path d="M186.983 521V508.4H188.783V519.434H195.605V521H186.983ZM201.543 521.108C200.523 521.108 199.623 520.898 198.843 520.478C198.075 520.058 197.475 519.482 197.043 518.75C196.623 518.018 196.413 517.178 196.413 516.23C196.413 515.282 196.617 514.442 197.025 513.71C197.445 512.978 198.015 512.408 198.735 512C199.467 511.58 200.289 511.37 201.201 511.37C202.125 511.37 202.941 511.574 203.649 511.982C204.357 512.39 204.909 512.966 205.305 513.71C205.713 514.442 205.917 515.3 205.917 516.284C205.917 516.356 205.911 516.44 205.899 516.536C205.899 516.632 205.893 516.722 205.881 516.806H197.763V515.564H204.981L204.279 515.996C204.291 515.384 204.165 514.838 203.901 514.358C203.637 513.878 203.271 513.506 202.803 513.242C202.347 512.966 201.813 512.828 201.201 512.828C200.601 512.828 200.067 512.966 199.599 513.242C199.131 513.506 198.765 513.884 198.501 514.376C198.237 514.856 198.105 515.408 198.105 516.032V516.32C198.105 516.956 198.249 517.526 198.537 518.03C198.837 518.522 199.251 518.906 199.779 519.182C200.307 519.458 200.913 519.596 201.597 519.596C202.161 519.596 202.671 519.5 203.127 519.308C203.595 519.116 204.003 518.828 204.351 518.444L205.305 519.56C204.873 520.064 204.333 520.448 203.685 520.712C203.049 520.976 202.335 521.108 201.543 521.108ZM213.411 511.37C214.191 511.37 214.875 511.52 215.463 511.82C216.063 512.12 216.531 512.576 216.867 513.188C217.203 513.8 217.371 514.574 217.371 515.51V521H215.643V515.708C215.643 514.784 215.415 514.088 214.959 513.62C214.515 513.152 213.885 512.918 213.069 512.918C212.457 512.918 211.923 513.038 211.467 513.278C211.011 513.518 210.657 513.872 210.405 514.34C210.165 514.808 210.045 515.39 210.045 516.086V521H208.317V511.46H209.973V514.034L209.703 513.35C210.015 512.726 210.495 512.24 211.143 511.892C211.791 511.544 212.547 511.37 213.411 511.37ZM224.511 521.108C223.587 521.108 222.759 520.904 222.027 520.496C221.307 520.088 220.737 519.518 220.317 518.786C219.897 518.054 219.687 517.202 219.687 516.23C219.687 515.258 219.897 514.412 220.317 513.692C220.737 512.96 221.307 512.39 222.027 511.982C222.759 511.574 223.587 511.37 224.511 511.37C225.315 511.37 226.041 511.55 226.689 511.91C227.337 512.27 227.853 512.81 228.237 513.53C228.633 514.25 228.831 515.15 228.831 516.23C228.831 517.31 228.639 518.21 228.255 518.93C227.883 519.65 227.373 520.196 226.725 520.568C226.077 520.928 225.339 521.108 224.511 521.108ZM224.655 519.596C225.255 519.596 225.795 519.458 226.275 519.182C226.767 518.906 227.151 518.516 227.427 518.012C227.715 517.496 227.859 516.902 227.859 516.23C227.859 515.546 227.715 514.958 227.427 514.466C227.151 513.962 226.767 513.572 226.275 513.296C225.795 513.02 225.255 512.882 224.655 512.882C224.043 512.882 223.497 513.02 223.017 513.296C222.537 513.572 222.153 513.962 221.865 514.466C221.577 514.958 221.433 515.546 221.433 516.23C221.433 516.902 221.577 517.496 221.865 518.012C222.153 518.516 222.537 518.906 223.017 519.182C223.497 519.458 224.043 519.596 224.655 519.596ZM227.913 521V518.426L228.021 516.212L227.841 513.998V507.644H229.569V521H227.913ZM232.838 521V511.46H234.566V521H232.838ZM233.702 509.624C233.366 509.624 233.084 509.516 232.856 509.3C232.64 509.084 232.532 508.82 232.532 508.508C232.532 508.184 232.64 507.914 232.856 507.698C233.084 507.482 233.366 507.374 233.702 507.374C234.038 507.374 234.314 507.482 234.53 507.698C234.758 507.902 234.872 508.16 234.872 508.472C234.872 508.796 234.764 509.072 234.548 509.3C234.332 509.516 234.05 509.624 233.702 509.624ZM242.96 511.37C243.74 511.37 244.424 511.52 245.012 511.82C245.612 512.12 246.08 512.576 246.416 513.188C246.752 513.8 246.92 514.574 246.92 515.51V521H245.192V515.708C245.192 514.784 244.964 514.088 244.508 513.62C244.064 513.152 243.434 512.918 242.618 512.918C242.006 512.918 241.472 513.038 241.016 513.278C240.56 513.518 240.206 513.872 239.954 514.34C239.714 514.808 239.594 515.39 239.594 516.086V521H237.866V511.46H239.522V514.034L239.252 513.35C239.564 512.726 240.044 512.24 240.692 511.892C241.34 511.544 242.096 511.37 242.96 511.37ZM254.293 524.6C253.417 524.6 252.565 524.474 251.737 524.222C250.921 523.982 250.255 523.634 249.739 523.178L250.567 521.846C251.011 522.23 251.557 522.53 252.205 522.746C252.853 522.974 253.531 523.088 254.239 523.088C255.367 523.088 256.195 522.824 256.723 522.296C257.251 521.768 257.515 520.964 257.515 519.884V517.868L257.695 515.978L257.605 514.07V511.46H259.243V519.704C259.243 521.384 258.823 522.62 257.983 523.412C257.143 524.204 255.913 524.6 254.293 524.6ZM254.077 520.604C253.153 520.604 252.325 520.412 251.593 520.028C250.873 519.632 250.297 519.086 249.865 518.39C249.445 517.694 249.235 516.89 249.235 515.978C249.235 515.054 249.445 514.25 249.865 513.566C250.297 512.87 250.873 512.33 251.593 511.946C252.325 511.562 253.153 511.37 254.077 511.37C254.893 511.37 255.637 511.538 256.309 511.874C256.981 512.198 257.515 512.702 257.911 513.386C258.319 514.07 258.523 514.934 258.523 515.978C258.523 517.01 258.319 517.868 257.911 518.552C257.515 519.236 256.981 519.752 256.309 520.1C255.637 520.436 254.893 520.604 254.077 520.604ZM254.275 519.092C254.911 519.092 255.475 518.96 255.967 518.696C256.459 518.432 256.843 518.066 257.119 517.598C257.407 517.13 257.551 516.59 257.551 515.978C257.551 515.366 257.407 514.826 257.119 514.358C256.843 513.89 256.459 513.53 255.967 513.278C255.475 513.014 254.911 512.882 254.275 512.882C253.639 512.882 253.069 513.014 252.565 513.278C252.073 513.53 251.683 513.89 251.395 514.358C251.119 514.826 250.981 515.366 250.981 515.978C250.981 516.59 251.119 517.13 251.395 517.598C251.683 518.066 252.073 518.432 252.565 518.696C253.069 518.96 253.639 519.092 254.275 519.092Z" fill="#7A7A7A"/>
<path d="M320.689 521L326.395 508.4H328.177L333.901 521H332.011L326.917 509.408H327.637L322.543 521H320.689ZM323.119 517.85L323.605 516.41H330.697L331.219 517.85H323.119ZM339.367 521.108C338.551 521.108 337.831 520.958 337.207 520.658C336.595 520.358 336.115 519.902 335.767 519.29C335.431 518.666 335.263 517.886 335.263 516.95V511.46H336.991V516.752C336.991 517.688 337.213 518.39 337.657 518.858C338.113 519.326 338.749 519.56 339.565 519.56C340.165 519.56 340.687 519.44 341.131 519.2C341.575 518.948 341.917 518.588 342.157 518.12C342.397 517.64 342.517 517.064 342.517 516.392V511.46H344.245V521H342.607V518.426L342.877 519.11C342.565 519.746 342.097 520.238 341.473 520.586C340.849 520.934 340.147 521.108 339.367 521.108ZM350.81 521.108C349.85 521.108 349.106 520.85 348.578 520.334C348.05 519.818 347.786 519.08 347.786 518.12V509.372H349.514V518.048C349.514 518.564 349.64 518.96 349.892 519.236C350.156 519.512 350.528 519.65 351.008 519.65C351.548 519.65 351.998 519.5 352.358 519.2L352.898 520.442C352.634 520.67 352.316 520.838 351.944 520.946C351.584 521.054 351.206 521.108 350.81 521.108ZM346.166 512.882V511.46H352.25V512.882H346.166ZM358.757 521.108C357.797 521.108 356.945 520.898 356.201 520.478C355.457 520.058 354.869 519.482 354.437 518.75C354.005 518.006 353.789 517.166 353.789 516.23C353.789 515.282 354.005 514.442 354.437 513.71C354.869 512.978 355.457 512.408 356.201 512C356.945 511.58 357.797 511.37 358.757 511.37C359.705 511.37 360.551 511.58 361.295 512C362.051 512.408 362.639 512.978 363.059 513.71C363.491 514.43 363.707 515.27 363.707 516.23C363.707 517.178 363.491 518.018 363.059 518.75C362.639 519.482 362.051 520.058 361.295 520.478C360.551 520.898 359.705 521.108 358.757 521.108ZM358.757 519.596C359.369 519.596 359.915 519.458 360.395 519.182C360.887 518.906 361.271 518.516 361.547 518.012C361.823 517.496 361.961 516.902 361.961 516.23C361.961 515.546 361.823 514.958 361.547 514.466C361.271 513.962 360.887 513.572 360.395 513.296C359.915 513.02 359.369 512.882 358.757 512.882C358.145 512.882 357.599 513.02 357.119 513.296C356.639 513.572 356.255 513.962 355.967 514.466C355.679 514.958 355.535 515.546 355.535 516.23C355.535 516.902 355.679 517.496 355.967 518.012C356.255 518.516 356.639 518.906 357.119 519.182C357.599 519.458 358.145 519.596 358.757 519.596ZM307.374 543V530.4H312.288C313.392 530.4 314.334 530.574 315.114 530.922C315.894 531.27 316.494 531.774 316.914 532.434C317.334 533.094 317.544 533.88 317.544 534.792C317.544 535.704 317.334 536.49 316.914 537.15C316.494 537.798 315.894 538.296 315.114 538.644C314.334 538.992 313.392 539.166 312.288 539.166H308.364L309.174 538.338V543H307.374ZM315.798 543L312.594 538.428H314.52L317.76 543H315.798ZM309.174 538.518L308.364 537.636H312.234C313.386 537.636 314.256 537.39 314.844 536.898C315.444 536.394 315.744 535.692 315.744 534.792C315.744 533.892 315.444 533.196 314.844 532.704C314.256 532.212 313.386 531.966 312.234 531.966H308.364L309.174 531.066V538.518ZM324.449 543.108C323.429 543.108 322.529 542.898 321.749 542.478C320.981 542.058 320.381 541.482 319.949 540.75C319.529 540.018 319.319 539.178 319.319 538.23C319.319 537.282 319.523 536.442 319.931 535.71C320.351 534.978 320.921 534.408 321.641 534C322.373 533.58 323.195 533.37 324.107 533.37C325.031 533.37 325.847 533.574 326.555 533.982C327.263 534.39 327.815 534.966 328.211 535.71C328.619 536.442 328.823 537.3 328.823 538.284C328.823 538.356 328.817 538.44 328.805 538.536C328.805 538.632 328.799 538.722 328.787 538.806H320.669V537.564H327.887L327.185 537.996C327.197 537.384 327.071 536.838 326.807 536.358C326.543 535.878 326.177 535.506 325.709 535.242C325.253 534.966 324.719 534.828 324.107 534.828C323.507 534.828 322.973 534.966 322.505 535.242C322.037 535.506 321.671 535.884 321.407 536.376C321.143 536.856 321.011 537.408 321.011 538.032V538.32C321.011 538.956 321.155 539.526 321.443 540.03C321.743 540.522 322.157 540.906 322.685 541.182C323.213 541.458 323.819 541.596 324.503 541.596C325.067 541.596 325.577 541.5 326.033 541.308C326.501 541.116 326.909 540.828 327.257 540.444L328.211 541.56C327.779 542.064 327.239 542.448 326.591 542.712C325.955 542.976 325.241 543.108 324.449 543.108ZM333.062 543L329.516 533.46H331.154L334.304 542.1H333.53L336.806 533.46H338.264L341.468 542.1H340.712L343.934 533.46H345.482L341.918 543H340.262L337.256 535.116H337.76L334.718 543H333.062ZM352.859 543V540.984L352.769 540.606V537.168C352.769 536.436 352.553 535.872 352.121 535.476C351.701 535.068 351.065 534.864 350.213 534.864C349.649 534.864 349.097 534.96 348.557 535.152C348.017 535.332 347.561 535.578 347.189 535.89L346.469 534.594C346.961 534.198 347.549 533.898 348.233 533.694C348.929 533.478 349.655 533.37 350.411 533.37C351.719 533.37 352.727 533.688 353.435 534.324C354.143 534.96 354.497 535.932 354.497 537.24V543H352.859ZM349.727 543.108C349.019 543.108 348.395 542.988 347.855 542.748C347.327 542.508 346.919 542.178 346.631 541.758C346.343 541.326 346.199 540.84 346.199 540.3C346.199 539.784 346.319 539.316 346.559 538.896C346.811 538.476 347.213 538.14 347.765 537.888C348.329 537.636 349.085 537.51 350.033 537.51H353.057V538.752H350.105C349.241 538.752 348.659 538.896 348.359 539.184C348.059 539.472 347.909 539.82 347.909 540.228C347.909 540.696 348.095 541.074 348.467 541.362C348.839 541.638 349.355 541.776 350.015 541.776C350.663 541.776 351.227 541.632 351.707 541.344C352.199 541.056 352.553 540.636 352.769 540.084L353.111 541.272C352.883 541.836 352.481 542.286 351.905 542.622C351.329 542.946 350.603 543.108 349.727 543.108ZM357.695 543V533.46H359.351V536.052L359.189 535.404C359.453 534.744 359.897 534.24 360.521 533.892C361.145 533.544 361.913 533.37 362.825 533.37V535.044C362.753 535.032 362.681 535.026 362.609 535.026C362.549 535.026 362.489 535.026 362.429 535.026C361.505 535.026 360.773 535.302 360.233 535.854C359.693 536.406 359.423 537.204 359.423 538.248V543H357.695ZM368.809 543.108C367.885 543.108 367.057 542.904 366.325 542.496C365.605 542.088 365.035 541.518 364.615 540.786C364.195 540.054 363.985 539.202 363.985 538.23C363.985 537.258 364.195 536.412 364.615 535.692C365.035 534.96 365.605 534.39 366.325 533.982C367.057 533.574 367.885 533.37 368.809 533.37C369.613 533.37 370.339 533.55 370.987 533.91C371.635 534.27 372.151 534.81 372.535 535.53C372.931 536.25 373.129 537.15 373.129 538.23C373.129 539.31 372.937 540.21 372.553 540.93C372.181 541.65 371.671 542.196 371.023 542.568C370.375 542.928 369.637 543.108 368.809 543.108ZM368.953 541.596C369.553 541.596 370.093 541.458 370.573 541.182C371.065 540.906 371.449 540.516 371.725 540.012C372.013 539.496 372.157 538.902 372.157 538.23C372.157 537.546 372.013 536.958 371.725 536.466C371.449 535.962 371.065 535.572 370.573 535.296C370.093 535.02 369.553 534.882 368.953 534.882C368.341 534.882 367.795 535.02 367.315 535.296C366.835 535.572 366.451 535.962 366.163 536.466C365.875 536.958 365.731 537.546 365.731 538.23C365.731 538.902 365.875 539.496 366.163 540.012C366.451 540.516 366.835 540.906 367.315 541.182C367.795 541.458 368.341 541.596 368.953 541.596ZM372.211 543V540.426L372.319 538.212L372.139 535.998V529.644H373.867V543H372.211ZM379.872 543.108C379.08 543.108 378.324 543 377.604 542.784C376.896 542.568 376.338 542.304 375.93 541.992L376.65 540.624C377.058 540.9 377.562 541.134 378.162 541.326C378.762 541.518 379.374 541.614 379.998 541.614C380.802 541.614 381.378 541.5 381.726 541.272C382.086 541.044 382.266 540.726 382.266 540.318C382.266 540.018 382.158 539.784 381.942 539.616C381.726 539.448 381.438 539.322 381.078 539.238C380.73 539.154 380.34 539.082 379.908 539.022C379.476 538.95 379.044 538.866 378.612 538.77C378.18 538.662 377.784 538.518 377.424 538.338C377.064 538.146 376.776 537.888 376.56 537.564C376.344 537.228 376.236 536.784 376.236 536.232C376.236 535.656 376.398 535.152 376.722 534.72C377.046 534.288 377.502 533.958 378.09 533.73C378.69 533.49 379.398 533.37 380.214 533.37C380.838 533.37 381.468 533.448 382.104 533.604C382.752 533.748 383.28 533.958 383.688 534.234L382.95 535.602C382.518 535.314 382.068 535.116 381.6 535.008C381.132 534.9 380.664 534.846 380.196 534.846C379.44 534.846 378.876 534.972 378.504 535.224C378.132 535.464 377.946 535.776 377.946 536.16C377.946 536.484 378.054 536.736 378.27 536.916C378.498 537.084 378.786 537.216 379.134 537.312C379.494 537.408 379.89 537.492 380.322 537.564C380.754 537.624 381.186 537.708 381.618 537.816C382.05 537.912 382.44 538.05 382.788 538.23C383.148 538.41 383.436 538.662 383.652 538.986C383.88 539.31 383.994 539.742 383.994 540.282C383.994 540.858 383.826 541.356 383.49 541.776C383.154 542.196 382.68 542.526 382.068 542.766C381.456 542.994 380.724 543.108 379.872 543.108Z" fill="#7A7A7A"/>
<path d="M436.967 521.144C436.007 521.144 435.089 521 434.213 520.712C433.337 520.412 432.647 520.028 432.143 519.56L432.809 518.156C433.289 518.576 433.901 518.924 434.645 519.2C435.389 519.476 436.163 519.614 436.967 519.614C437.699 519.614 438.293 519.53 438.749 519.362C439.205 519.194 439.541 518.966 439.757 518.678C439.973 518.378 440.081 518.042 440.081 517.67C440.081 517.238 439.937 516.89 439.649 516.626C439.373 516.362 439.007 516.152 438.551 515.996C438.107 515.828 437.615 515.684 437.075 515.564C436.535 515.444 435.989 515.306 435.437 515.15C434.897 514.982 434.399 514.772 433.943 514.52C433.499 514.268 433.139 513.932 432.863 513.512C432.587 513.08 432.449 512.528 432.449 511.856C432.449 511.208 432.617 510.614 432.953 510.074C433.301 509.522 433.829 509.084 434.537 508.76C435.257 508.424 436.169 508.256 437.273 508.256C438.005 508.256 438.731 508.352 439.451 508.544C440.171 508.736 440.795 509.012 441.323 509.372L440.729 510.812C440.189 510.452 439.619 510.194 439.019 510.038C438.419 509.87 437.837 509.786 437.273 509.786C436.565 509.786 435.983 509.876 435.527 510.056C435.071 510.236 434.735 510.476 434.519 510.776C434.315 511.076 434.213 511.412 434.213 511.784C434.213 512.228 434.351 512.582 434.627 512.846C434.915 513.11 435.281 513.32 435.725 513.476C436.181 513.632 436.679 513.776 437.219 513.908C437.759 514.028 438.299 514.166 438.839 514.322C439.391 514.478 439.889 514.682 440.333 514.934C440.789 515.186 441.155 515.522 441.431 515.942C441.707 516.362 441.845 516.902 441.845 517.562C441.845 518.198 441.671 518.792 441.323 519.344C440.975 519.884 440.435 520.322 439.703 520.658C438.983 520.982 438.071 521.144 436.967 521.144ZM447.499 521.108C446.539 521.108 445.795 520.85 445.267 520.334C444.739 519.818 444.475 519.08 444.475 518.12V509.372H446.203V518.048C446.203 518.564 446.329 518.96 446.581 519.236C446.845 519.512 447.217 519.65 447.697 519.65C448.237 519.65 448.687 519.5 449.047 519.2L449.587 520.442C449.323 520.67 449.005 520.838 448.633 520.946C448.273 521.054 447.895 521.108 447.499 521.108ZM442.855 512.882V511.46H448.939V512.882H442.855ZM457.598 521V518.984L457.508 518.606V515.168C457.508 514.436 457.292 513.872 456.86 513.476C456.44 513.068 455.804 512.864 454.952 512.864C454.388 512.864 453.836 512.96 453.296 513.152C452.756 513.332 452.3 513.578 451.928 513.89L451.208 512.594C451.7 512.198 452.288 511.898 452.972 511.694C453.668 511.478 454.394 511.37 455.15 511.37C456.458 511.37 457.466 511.688 458.174 512.324C458.882 512.96 459.236 513.932 459.236 515.24V521H457.598ZM454.466 521.108C453.758 521.108 453.134 520.988 452.594 520.748C452.066 520.508 451.658 520.178 451.37 519.758C451.082 519.326 450.938 518.84 450.938 518.3C450.938 517.784 451.058 517.316 451.298 516.896C451.55 516.476 451.952 516.14 452.504 515.888C453.068 515.636 453.824 515.51 454.772 515.51H457.796V516.752H454.844C453.98 516.752 453.398 516.896 453.098 517.184C452.798 517.472 452.648 517.82 452.648 518.228C452.648 518.696 452.834 519.074 453.206 519.362C453.578 519.638 454.094 519.776 454.754 519.776C455.402 519.776 455.966 519.632 456.446 519.344C456.938 519.056 457.292 518.636 457.508 518.084L457.85 519.272C457.622 519.836 457.22 520.286 456.644 520.622C456.068 520.946 455.342 521.108 454.466 521.108ZM463.838 518.696L463.874 516.482L469.364 511.46H471.452L467.24 515.6L466.304 516.392L463.838 518.696ZM462.434 521V507.644H464.162V521H462.434ZM469.724 521L465.98 516.356L467.096 514.97L471.848 521H469.724ZM473.526 521V511.46H475.254V521H473.526ZM474.39 509.624C474.054 509.624 473.772 509.516 473.544 509.3C473.328 509.084 473.22 508.82 473.22 508.508C473.22 508.184 473.328 507.914 473.544 507.698C473.772 507.482 474.054 507.374 474.39 507.374C474.726 507.374 475.002 507.482 475.218 507.698C475.446 507.902 475.56 508.16 475.56 508.472C475.56 508.796 475.452 509.072 475.236 509.3C475.02 509.516 474.738 509.624 474.39 509.624ZM483.647 511.37C484.427 511.37 485.111 511.52 485.699 511.82C486.299 512.12 486.767 512.576 487.103 513.188C487.439 513.8 487.607 514.574 487.607 515.51V521H485.879V515.708C485.879 514.784 485.651 514.088 485.195 513.62C484.751 513.152 484.121 512.918 483.305 512.918C482.693 512.918 482.159 513.038 481.703 513.278C481.247 513.518 480.893 513.872 480.641 514.34C480.401 514.808 480.281 515.39 480.281 516.086V521H478.553V511.46H480.209V514.034L479.939 513.35C480.251 512.726 480.731 512.24 481.379 511.892C482.027 511.544 482.783 511.37 483.647 511.37ZM494.981 524.6C494.105 524.6 493.253 524.474 492.425 524.222C491.609 523.982 490.943 523.634 490.427 523.178L491.255 521.846C491.699 522.23 492.245 522.53 492.893 522.746C493.541 522.974 494.219 523.088 494.927 523.088C496.055 523.088 496.883 522.824 497.411 522.296C497.939 521.768 498.203 520.964 498.203 519.884V517.868L498.383 515.978L498.293 514.07V511.46H499.931V519.704C499.931 521.384 499.511 522.62 498.671 523.412C497.831 524.204 496.601 524.6 494.981 524.6ZM494.765 520.604C493.841 520.604 493.013 520.412 492.281 520.028C491.561 519.632 490.985 519.086 490.553 518.39C490.133 517.694 489.923 516.89 489.923 515.978C489.923 515.054 490.133 514.25 490.553 513.566C490.985 512.87 491.561 512.33 492.281 511.946C493.013 511.562 493.841 511.37 494.765 511.37C495.581 511.37 496.325 511.538 496.997 511.874C497.669 512.198 498.203 512.702 498.599 513.386C499.007 514.07 499.211 514.934 499.211 515.978C499.211 517.01 499.007 517.868 498.599 518.552C498.203 519.236 497.669 519.752 496.997 520.1C496.325 520.436 495.581 520.604 494.765 520.604ZM494.963 519.092C495.599 519.092 496.163 518.96 496.655 518.696C497.147 518.432 497.531 518.066 497.807 517.598C498.095 517.13 498.239 516.59 498.239 515.978C498.239 515.366 498.095 514.826 497.807 514.358C497.531 513.89 497.147 513.53 496.655 513.278C496.163 513.014 495.599 512.882 494.963 512.882C494.327 512.882 493.757 513.014 493.253 513.278C492.761 513.53 492.371 513.89 492.083 514.358C491.807 514.826 491.669 515.366 491.669 515.978C491.669 516.59 491.807 517.13 492.083 517.598C492.371 518.066 492.761 518.432 493.253 518.696C493.757 518.96 494.327 519.092 494.963 519.092Z" fill="#7A7A7A"/>
<path d="M326.156 481L331.862 468.4H333.644L339.368 481H337.478L332.384 469.408H333.104L328.01 481H326.156ZM328.586 477.85L329.072 476.41H336.164L336.686 477.85H328.586ZM341.247 481V468.4H346.161C347.265 468.4 348.207 468.574 348.987 468.922C349.767 469.27 350.367 469.774 350.787 470.434C351.207 471.094 351.417 471.88 351.417 472.792C351.417 473.704 351.207 474.49 350.787 475.15C350.367 475.798 349.767 476.302 348.987 476.662C348.207 477.01 347.265 477.184 346.161 477.184H342.237L343.047 476.338V481H341.247ZM343.047 476.518L342.237 475.618H346.107C347.259 475.618 348.129 475.372 348.717 474.88C349.317 474.388 349.617 473.692 349.617 472.792C349.617 471.892 349.317 471.196 348.717 470.704C348.129 470.212 347.259 469.966 346.107 469.966H342.237L343.047 469.066V476.518ZM357.104 481V476.176L357.518 477.292L352.1 468.4H354.026L358.58 475.906H357.536L362.108 468.4H363.89L358.49 477.292L358.886 476.176V481H357.104Z" fill="white"/>
<path d="M448.156 481L453.862 468.4H455.644L461.368 481H459.478L454.384 469.408H455.104L450.01 481H448.156ZM450.586 477.85L451.072 476.41H458.164L458.686 477.85H450.586ZM463.247 481V468.4H468.161C469.265 468.4 470.207 468.574 470.987 468.922C471.767 469.27 472.367 469.774 472.787 470.434C473.207 471.094 473.417 471.88 473.417 472.792C473.417 473.704 473.207 474.49 472.787 475.15C472.367 475.798 471.767 476.302 470.987 476.662C470.207 477.01 469.265 477.184 468.161 477.184H464.237L465.047 476.338V481H463.247ZM465.047 476.518L464.237 475.618H468.107C469.259 475.618 470.129 475.372 470.717 474.88C471.317 474.388 471.617 473.692 471.617 472.792C471.617 471.892 471.317 471.196 470.717 470.704C470.129 470.212 469.259 469.966 468.107 469.966H464.237L465.047 469.066V476.518ZM479.104 481V476.176L479.518 477.292L474.1 468.4H476.026L480.58 475.906H479.536L484.108 468.4H485.89L480.49 477.292L480.886 476.176V481H479.104Z" fill="white"/>
<defs>
<linearGradient id="paint0_linear_300_1094" x1="68" y1="254.312" x2="136.552" y2="255.397" gradientUnits="userSpaceOnUse">
<stop stop-color="#30C917"/>
<stop offset="1" stop-color="#279A13"/>
</linearGradient>
<linearGradient id="paint1_linear_300_1094" x1="190" y1="127.562" x2="258.562" y2="128.272" gradientUnits="userSpaceOnUse">
<stop stop-color="#30C917"/>
<stop offset="1" stop-color="#279A13"/>
</linearGradient>
<linearGradient id="paint2_linear_300_1094" x1="312" y1="341.25" x2="380.527" y2="342.951" gradientUnits="userSpaceOnUse">
<stop stop-color="#30C917"/>
<stop offset="1" stop-color="#279A13"/>
</linearGradient>
<linearGradient id="paint3_linear_300_1094" x1="434" y1="199.062" x2="502.558" y2="199.944" gradientUnits="userSpaceOnUse">
<stop stop-color="#30C917"/>
<stop offset="1" stop-color="#279A13"/>
</linearGradient>
</defs>
</svg>
